<?xml version="1.0" encoding="utf-8"?>
<!-- Generator: Adobe Illustrator 17.0.0, SVG Export Plug-In . SVG Version: 6.00 Build 0)  -->
<!DOCTYPE svg PUBLIC "-//W3C//DTD SVG 1.1//EN" "http://www.w3.org/Graphics/SVG/1.1/DTD/svg11.dtd">
<svg version="1.1" id="Layer_1" xmlns="http://www.w3.org/2000/svg" xmlns:xlink="http://www.w3.org/1999/xlink" x="0px" y="0px"
	 width="16.2px" height="16.4px" viewBox="0 0 16.2 16.4" enable-background="new 0 0 16.2 16.4" xml:space="preserve">
<g>
	<g>
		<path fill="#999999" d="M11.4,2.4C9-0.1,4.9-0.1,2.5,2.4C0,4.9,0,8.9,2.5,11.3c2.1,2.1,5.4,2.4,7.8,0.9l3.3,3.3l2-2l-3.3-3.3
			C13.8,7.8,13.6,4.5,11.4,2.4z M10,10c-1.7,1.7-4.5,1.7-6.2,0c-1.7-1.7-1.7-4.5,0-6.2c1.7-1.7,4.5-1.7,6.2,0
			C11.7,5.5,11.7,8.3,10,10z"/>
	</g>
</g>
</svg>
