<?xml version="1.0" encoding="utf-8"?>
<!-- Generator: Adobe Illustrator 17.0.0, SVG Export Plug-In . SVG Version: 6.00 Build 0)  -->
<!DOCTYPE svg PUBLIC "-//W3C//DTD SVG 1.1//EN" "http://www.w3.org/Graphics/SVG/1.1/DTD/svg11.dtd">
<svg version="1.1" id="Layer_1" xmlns="http://www.w3.org/2000/svg" xmlns:xlink="http://www.w3.org/1999/xlink" x="0px" y="0px"
	 width="26.9px" height="28.7px" viewBox="0 0 26.9 28.7" enable-background="new 0 0 26.9 28.7" xml:space="preserve">
<g>
	<path fill="#0099CC" d="M20.7,3.5h4.5c0.3,0,0.6,0.1,0.8,0.3c0.2,0.2,0.3,0.5,0.3,0.8v2.3h-26V4.7c0-0.3,0.1-0.6,0.3-0.8
		c0.2-0.2,0.5-0.3,0.8-0.3H6V0.1h2.3v3.4h10.2V0.1h2.3V3.5z M0.4,8.1h26v19.2c0,0.3-0.1,0.6-0.3,0.8c-0.2,0.2-0.5,0.3-0.8,0.3H1.5
		c-0.3,0-0.6-0.1-0.8-0.3c-0.2-0.2-0.3-0.5-0.3-0.8V8.1z M2.6,14.8h4.5v-4.5H2.6V14.8z M2.6,20.5h4.5V16H2.6V20.5z M2.6,26.1h4.5
		v-4.5H2.6V26.1z M8.3,14.8h4.6v-4.5H8.3V14.8z M8.3,20.5h4.6V16H8.3V20.5z M8.3,26.1h4.6v-4.5H8.3V26.1z M13.9,14.8h4.5v-4.5h-4.5
		V14.8z M13.9,20.5h4.5V16h-4.5V20.5z M13.9,26.1h4.5v-4.5h-4.5V26.1z M19.6,14.8h4.6v-4.5h-4.6V14.8z M19.6,20.5h4.6V16h-4.6V20.5z
		 M19.6,26.1h4.6v-4.5h-4.6V26.1z"/>
</g>
</svg>
