<?xml version="1.0" encoding="utf-8"?>
<!-- Generator: Adobe Illustrator 17.0.0, SVG Export Plug-In . SVG Version: 6.00 Build 0)  -->
<!DOCTYPE svg PUBLIC "-//W3C//DTD SVG 1.1//EN" "http://www.w3.org/Graphics/SVG/1.1/DTD/svg11.dtd">
<svg version="1.1" id="Layer_1" xmlns="http://www.w3.org/2000/svg" xmlns:xlink="http://www.w3.org/1999/xlink" x="0px" y="0px"
	 width="36.5px" height="43.3px" viewBox="0 0 36.5 43.3" enable-background="new 0 0 36.5 43.3" xml:space="preserve">
<g>
	<path fill="#0099CC" d="M13.3,21.8l6.8-6.8c-0.6-0.4-1.3-0.7-2-1l-6.3,6.3L13.3,21.8z"/>
	<path fill="#0099CC" d="M21.3,23.3l3.2-3.2c-0.3-0.7-0.6-1.4-1-2l-5.2,5.2H21.3z"/>
	<path fill="#0099CC" d="M11,19.4l5.8-5.8c-0.7-0.2-1.4-0.2-2.2-0.2c-0.2,0-0.4,0-0.6,0l-4.6,4.6L11,19.4z"/>
	<path fill="#0099CC" d="M23,23.3h2.1c0-0.6-0.1-1.2-0.3-1.8L23,23.3z"/>
	<path fill="#0099CC" d="M22.7,17.1c-0.5-0.5-1-1.1-1.5-1.5l-7,7l0.6,0.7h1.7L22.7,17.1z"/>
	<path fill="#0099CC" d="M15.2,34.3c2.6-0.1,5-1.2,6.9-3.1c1.9-1.9,2.9-4.3,3.1-6.9h-9.9V34.3z"/>
	<path fill="#0099CC" d="M4.1,23.8c0,5.6,4.4,10.2,10,10.5V24l-7.3-7.3C5.1,18.7,4.1,21.2,4.1,23.8z"/>
	<path fill="#0099CC" d="M12,13.7c-1.6,0.4-3.1,1.2-4.4,2.4l1,1L12,13.7z"/>
	<path fill="#0099CC" d="M25.7,7.4H3.5c-1.3,0-2.3,1-2.3,2.3v30.6c0,1.2,1,2.3,2.3,2.3h22.2c1.3,0,2.3-1,2.3-2.3V9.7
		C28,8.4,26.9,7.4,25.7,7.4z M26.3,40.2c0,0.4-0.3,0.6-0.6,0.6H3.5c-0.4,0-0.6-0.3-0.6-0.6V9.7C2.9,9.3,3.2,9,3.5,9h22.2
		c0.4,0,0.6,0.3,0.6,0.6V40.2z"/>
	<path fill="#0099CC" d="M33.7,4.6L11.8,0.9c-1.2-0.2-2.4,0.6-2.6,1.9L8.6,6.2h1.6L10.8,3c0.1-0.4,0.4-0.6,0.7-0.5l21.9,3.7
		C33.8,6.3,34,6.6,33.9,7L28.8,37v2.1c0.8-0.2,1.4-0.9,1.6-1.8l5.1-30.1C35.8,6,34.9,4.8,33.7,4.6z"/>
</g>
</svg>
