<?xml version="1.0" encoding="utf-8"?>
<!-- Generator: Adobe Illustrator 17.0.0, SVG Export Plug-In . SVG Version: 6.00 Build 0)  -->
<!DOCTYPE svg PUBLIC "-//W3C//DTD SVG 1.1//EN" "http://www.w3.org/Graphics/SVG/1.1/DTD/svg11.dtd">
<svg version="1.1" id="Layer_1" xmlns="http://www.w3.org/2000/svg" xmlns:xlink="http://www.w3.org/1999/xlink" x="0px" y="0px"
	 width="19.9px" height="18.2px" viewBox="0 0 19.9 18.2" enable-background="new 0 0 19.9 18.2" xml:space="preserve">
<g>
	<path fill="#0099CC" d="M14.7,0.9c0.6,0,1.2,0.1,1.7,0.4c0.5,0.2,1,0.6,1.4,1c0.4,0.4,0.7,0.9,1,1.4c0.2,0.5,0.4,1.1,0.4,1.7v3
		c0,0.6-0.1,1.2-0.4,1.7c-0.2,0.5-0.6,1-1,1.4c-0.4,0.4-0.9,0.7-1.4,1c-0.5,0.2-1.1,0.4-1.7,0.4h-3.1l-5.1,4.5v-4.5H5.7
		c-0.6,0-1.2-0.1-1.7-0.4c-0.5-0.2-1-0.6-1.4-1c-0.4-0.4-0.7-0.9-1-1.4C1.3,9.6,1.2,9,1.2,8.4v-3c0-0.6,0.1-1.2,0.4-1.7
		c0.2-0.5,0.6-1,1-1.4c0.4-0.4,0.9-0.7,1.4-1C4.5,1,5.1,0.9,5.7,0.9H14.7z"/>
</g>
</svg>
