<?xml version="1.0" encoding="utf-8"?>
<!-- Generator: Adobe Illustrator 17.0.0, SVG Export Plug-In . SVG Version: 6.00 Build 0)  -->
<!DOCTYPE svg PUBLIC "-//W3C//DTD SVG 1.1//EN" "http://www.w3.org/Graphics/SVG/1.1/DTD/svg11.dtd">
<svg version="1.1" id="Layer_1" xmlns="http://www.w3.org/2000/svg" xmlns:xlink="http://www.w3.org/1999/xlink" x="0px" y="0px"
	 width="36.2px" height="33.2px" viewBox="0 0 36.2 33.2" enable-background="new 0 0 36.2 33.2" xml:space="preserve">
<g>
	<path fill="#0099CC" d="M26.7,0.6c1.2,0,2.3,0.2,3.4,0.7c1.1,0.5,2,1.1,2.8,1.9c0.8,0.8,1.4,1.7,1.9,2.8c0.5,1,0.7,2.2,0.7,3.4v5.9
		c0,1.2-0.2,2.3-0.7,3.4c-0.5,1.1-1.1,2-1.9,2.8c-0.8,0.8-1.7,1.4-2.8,1.9c-1.1,0.5-2.2,0.7-3.4,0.7h-6l-10,8.8v-8.8H9.3
		c-1.2,0-2.3-0.2-3.4-0.7c-1.1-0.5-2-1.1-2.8-1.9c-0.8-0.8-1.4-1.7-1.9-2.8c-0.5-1.1-0.7-2.2-0.7-3.4V9.3c0-1.2,0.2-2.3,0.7-3.4
		c0.5-1,1.1-2,1.9-2.8c0.8-0.8,1.7-1.4,2.8-1.9c1.1-0.5,2.2-0.7,3.4-0.7H26.7z"/>
</g>
</svg>
