<?xml version="1.0" encoding="utf-8"?>
<!-- Generator: Adobe Illustrator 17.0.0, SVG Export Plug-In . SVG Version: 6.00 Build 0)  -->
<!DOCTYPE svg PUBLIC "-//W3C//DTD SVG 1.1//EN" "http://www.w3.org/Graphics/SVG/1.1/DTD/svg11.dtd">
<svg version="1.1" id="Layer_1" xmlns="http://www.w3.org/2000/svg" xmlns:xlink="http://www.w3.org/1999/xlink" x="0px" y="0px"
	 width="141.7px" height="64px" viewBox="0 0 141.7 64" enable-background="new 0 0 141.7 64" xml:space="preserve">
<g>
	<g>
		<g>
			<path fill="#FFFFFF" d="M25.5,40.9c-0.3,0-0.7,0-0.7,0s-1-0.2-1.3-0.3c-0.2,0.1-0.4,0.2-0.6,0.3c-0.1,0.2-0.4,0.8-0.7,1.3h4.7
				C26.4,41.8,25.7,41.1,25.5,40.9z"/>
			<path fill="#FFFFFF" d="M21,19.9c0,0.3,0,0.7,0,1.2H5.7v-1.2H21z M12.3,32.5h1.7l2.9,0.1c0,0,3.3,0.1,4.2,0.1c0-0.2,0-0.5,0-1
				H5.7v1.2h6C11.8,32.6,12,32.5,12.3,32.5z M5.7,22.3v1.2H21c0-0.4,0-0.8,0-1.2H5.7z M5.7,24.7v1.2H21c0-0.4,0-0.8,0-1.2H5.7z
				 M12.6,34.7L12.1,34H5.7v1.2h7.6l-0.6-0.4C12.7,34.8,12.6,34.8,12.6,34.7z M5.7,29.3v1.2H21c0-0.4,0-0.8,0-1.2H5.7z M5.7,36.4
				v1.1h9.9l-1-1.1H5.7z M5.7,27v1.1H21c0-0.3,0-0.7,0-1.1H5.7z M17.1,41H5.7v1.2h13.5l-1.8-0.9C17.3,41.3,17.2,41.2,17.1,41z
				 M30.9,9.1H6.3H5.7v9.6H23h3.9h2.5c0.3,0,0.6,0.3,0.6,0.6c0,0,0,5.6,0,5.7c0.3,0.1,0.8,0.2,0.8,0.2s1.3,0.6,1.5,0.7
				c0.2,0,1.3,0,1.3,0c0.1,0,0.3,0.1,0.4,0.2c0,0,0.4,0.3,0.7,0.6c0.2-0.1,0.4-0.2,0.4-0.2c0.2-0.1,0.5-0.1,0.6,0
				c0,0,0.2,0.1,0.4,0.3c0.3-0.1,0.8-0.3,0.8-0.3c0.1-0.1,0.3-0.1,0.4,0c0,0,0.8,0.2,1.2,0.4c0.5-0.2,0.9-0.3,0.9-0.3
				c0.2-0.1,0.3,0,0.5,0c0,0,0.2,0.1,0.4,0.2c0.2-0.1,0.5-0.2,0.6-0.2c0.1-0.1,0.2-0.2,0.2-0.2c0.2-0.2,0.5-0.2,0.7-0.1l1.1,0.7
				c0,0,0.6,0.3,0.7,0.4c0.2,0,1,0,1,0c0.3,0,0.6,0.3,0.6,0.6l0,2.8c0,0,0.1,1.4,0.2,1.9c0.2,0.1,0.4,0.3,0.4,0.3
				c0.1,0.1,0.2,0.2,0.3,0.4c0,0,0.1,0.3,0.1,0.4c0.1,0.2,0.7,1,0.7,1c0.1,0.1,0.1,0.2,0.1,0.3l0,1.3l-0.1,1l0,1.6l-0.2,1
				c0,0.2-0.1,0.3-0.3,0.4l-1.3,0.8l-1.6,1.1l-3.4,2.5c0,0-1.6,1.7-1.8,1.8c-0.1,0.2-0.3,0.8-0.3,0.8s-0.3,0.7-0.4,0.9
				c0,0.3,0.2,1.6,0.2,1.6l0.4,0.9l0.3,1.4c0,0,0,0.1,0,0.1c0,0.2-0.1,0.5-0.4,0.5L37.4,53c-0.2,0.1-0.4,0.1-0.5,0
				c0,0-0.1-0.1-0.3-0.2H5.7V62h29.4c6.9,0,12.3-1.9,16.1-5.8c4.6-4.6,7-12,7-21.9C58.3,13.4,47.8,9.2,30.9,9.1z M31.7,50.9
				l-0.1-0.2l-0.1-0.3H5.7v1.2h27.4l-1-0.3C31.9,51.2,31.8,51.1,31.7,50.9z M16.5,39.5c0,0,0-0.4,0-0.6c0,0-0.1-0.1-0.1-0.2H5.7v1.2
				h10.9l0-0.1C16.5,39.7,16.5,39.6,16.5,39.5z M30.7,48.2C30.7,48.2,30.7,48.2,30.7,48.2l-25-0.1v1.1h25.1c0,0,0-0.1,0-0.1
				L30.7,48.2z M28.9,45.8H5.7v1.2h24.2c-0.2-0.1-0.3-0.3-0.3-0.3L28.9,45.8z M27.6,43.8c0,0,0-0.2,0-0.4H5.7v1.2H28L27.7,44
				C27.7,43.9,27.6,43.9,27.6,43.8z"/>
			<path fill="#FFFFFF" d="M123.4,40.1c9.2-0.5,13.8-5.8,13.8-15.4c0-6.5-2.2-10.4-5.6-12.7c-3.5-2.2-8.1-2.8-13.1-2.8H84.3V62h20.5
				V45l10.9,17h23.9L123.4,40.1z M104.5,32.4v-9.6h6.5c2.1,0,3.4,0.4,4.1,1.1c0.8,0.7,1.1,1.7,1.1,3.2c0,0,0,0,0,0.1c0,0,0,0,0,0
				c0,2.4-0.7,3.5-1.7,4.2c-1,0.7-2.6,0.9-4.5,0.9c0,0,0,0-0.1,0l0,0H104.5z M109.9,33L109.9,33L109.9,33L109.9,33z"/>
			<polygon fill="#FFFFFF" points="60.5,9.2 60.5,9.7 60.5,62 81,62 81,9.2 			"/>
		</g>
		<g>
			<path fill="#FFFFFF" d="M-19.4,72.7v-6.5h-2.1v-0.8h5v0.8h-2.1v6.5H-19.4z"/>
			<path fill="#FFFFFF" d="M-12.1,70.6h-3.6v0.1c0,0.5,0.1,0.9,0.4,1.2c0.3,0.3,0.6,0.5,1.1,0.5c0.3,0,0.6-0.1,0.8-0.2
				c0.2-0.2,0.5-0.4,0.7-0.7l0.6,0.4c-0.2,0.4-0.5,0.7-0.9,0.9c-0.4,0.2-0.8,0.3-1.2,0.3c-0.7,0-1.3-0.2-1.7-0.7
				c-0.4-0.5-0.6-1.1-0.6-1.8c0-0.7,0.2-1.3,0.6-1.8c0.4-0.5,1-0.7,1.6-0.7c0.7,0,1.2,0.2,1.6,0.6c0.4,0.4,0.6,1,0.6,1.8V70.6z
				 M-13,69.9c0-0.4-0.2-0.7-0.4-0.9c-0.2-0.2-0.6-0.3-1-0.3c-0.4,0-0.7,0.1-0.9,0.3c-0.3,0.2-0.4,0.5-0.4,0.9H-13z"/>
			<path fill="#FFFFFF" d="M-11.9,72.7l1.8-2.4l-1.7-2.2h1l1.2,1.6l1.2-1.6h1l-1.7,2.2l1.8,2.4h-1L-9.7,71l-1.2,1.8H-11.9z"/>
			<path fill="#FFFFFF" d="M-2.7,68.2v4.6h-0.8v-0.8c-0.2,0.3-0.4,0.6-0.7,0.8c-0.3,0.2-0.6,0.3-1,0.3c-0.7,0-1.2-0.2-1.6-0.7
				c-0.4-0.5-0.6-1-0.6-1.8c0-0.7,0.2-1.3,0.6-1.8c0.4-0.4,0.9-0.7,1.6-0.7c0.4,0,0.7,0.1,1,0.3c0.3,0.2,0.5,0.4,0.7,0.8v-0.9H-2.7z
				 M-3.4,70.5c0-0.5-0.1-0.9-0.4-1.2c-0.3-0.3-0.6-0.5-1.1-0.5c-0.5,0-0.8,0.1-1.1,0.4c-0.3,0.3-0.4,0.7-0.4,1.2
				c0,0.6,0.1,1,0.4,1.3c0.3,0.3,0.6,0.4,1.1,0.4c0.5,0,0.8-0.1,1.1-0.4C-3.5,71.4-3.4,71-3.4,70.5z"/>
			<path fill="#FFFFFF" d="M-1.7,72l0.7-0.4c0.1,0.2,0.3,0.4,0.5,0.5c0.2,0.1,0.4,0.2,0.7,0.2c0.3,0,0.5-0.1,0.6-0.2
				C0.9,71.9,1,71.8,1,71.6c0-0.2-0.1-0.3-0.2-0.4c-0.1-0.1-0.3-0.2-0.6-0.3c0,0-0.1,0-0.1,0C-1,70.4-1.6,70-1.6,69.4
				c0-0.4,0.1-0.7,0.4-1c0.3-0.3,0.7-0.4,1.2-0.4c0.4,0,0.7,0.1,1,0.2c0.3,0.2,0.5,0.4,0.6,0.7L1,69.3c-0.1-0.2-0.2-0.4-0.4-0.5
				c-0.2-0.1-0.4-0.2-0.6-0.2c-0.2,0-0.4,0.1-0.6,0.2c-0.1,0.1-0.2,0.3-0.2,0.5c0,0.3,0.3,0.5,0.9,0.7c0.1,0,0.2,0.1,0.3,0.1
				c0.5,0.2,0.8,0.3,1,0.5c0.2,0.2,0.3,0.5,0.3,0.8c0,0.4-0.2,0.8-0.5,1c-0.3,0.3-0.7,0.4-1.2,0.4c-0.4,0-0.8-0.1-1.1-0.2
				C-1.3,72.5-1.6,72.3-1.7,72z"/>
			<path fill="#FFFFFF" d="M5.7,72.7v-7.3h1.4c1,0,1.8,0.1,2.2,0.2c0.4,0.1,0.8,0.3,1.1,0.5c0.4,0.3,0.7,0.7,1,1.2
				c0.2,0.5,0.3,1.1,0.3,1.7c0,0.7-0.1,1.2-0.3,1.7c-0.2,0.5-0.5,0.9-1,1.2c-0.3,0.2-0.7,0.4-1.1,0.5c-0.4,0.1-1,0.2-1.9,0.2H7.1
				H5.7z M6.5,71.9h0.6c0.9,0,1.5,0,1.9-0.1c0.3-0.1,0.6-0.2,0.9-0.4c0.3-0.2,0.5-0.6,0.7-1c0.2-0.4,0.2-0.8,0.2-1.4
				c0-0.5-0.1-1-0.2-1.3c-0.2-0.4-0.4-0.7-0.7-1c-0.2-0.2-0.5-0.3-0.9-0.4c-0.4-0.1-1-0.1-1.9-0.1H6.5V71.9z"/>
			<path fill="#FFFFFF" d="M17,70.6h-3.6v0.1c0,0.5,0.1,0.9,0.4,1.2c0.3,0.3,0.6,0.5,1.1,0.5c0.3,0,0.6-0.1,0.8-0.2
				c0.2-0.2,0.5-0.4,0.7-0.7l0.6,0.4c-0.2,0.4-0.5,0.7-0.9,0.9c-0.4,0.2-0.8,0.3-1.2,0.3c-0.7,0-1.3-0.2-1.7-0.7
				c-0.4-0.5-0.6-1.1-0.6-1.8c0-0.7,0.2-1.3,0.6-1.8c0.4-0.5,1-0.7,1.6-0.7c0.7,0,1.2,0.2,1.6,0.6c0.4,0.4,0.6,1,0.6,1.8V70.6z
				 M16.2,69.9c0-0.4-0.2-0.7-0.4-0.9c-0.2-0.2-0.6-0.3-1-0.3c-0.4,0-0.7,0.1-0.9,0.3c-0.3,0.2-0.4,0.5-0.4,0.9H16.2z"/>
			<path fill="#FFFFFF" d="M18.1,75v-6.8h0.7V69c0.2-0.3,0.4-0.6,0.7-0.8c0.3-0.2,0.6-0.3,1-0.3c0.7,0,1.2,0.2,1.6,0.7
				c0.4,0.4,0.6,1,0.6,1.8c0,0.8-0.2,1.4-0.6,1.8c-0.4,0.4-0.9,0.7-1.6,0.7c-0.4,0-0.7-0.1-1-0.3c-0.3-0.2-0.5-0.4-0.7-0.8V75H18.1z
				 M18.8,70.5c0,0.5,0.1,0.9,0.4,1.2c0.3,0.3,0.7,0.5,1.1,0.5c0.5,0,0.8-0.1,1.1-0.4c0.3-0.3,0.4-0.7,0.4-1.2c0-0.6-0.1-1-0.4-1.3
				c-0.3-0.3-0.6-0.5-1.1-0.5c-0.5,0-0.8,0.2-1.1,0.5C19,69.5,18.8,69.9,18.8,70.5z"/>
			<path fill="#FFFFFF" d="M28.1,68.2v4.6h-0.8v-0.8c-0.2,0.3-0.4,0.6-0.7,0.8c-0.3,0.2-0.6,0.3-1,0.3c-0.7,0-1.2-0.2-1.6-0.7
				c-0.4-0.5-0.6-1-0.6-1.8c0-0.7,0.2-1.3,0.6-1.8c0.4-0.4,0.9-0.7,1.6-0.7c0.4,0,0.7,0.1,1,0.3c0.3,0.2,0.5,0.4,0.7,0.8v-0.9H28.1z
				 M27.3,70.5c0-0.5-0.1-0.9-0.4-1.2c-0.3-0.3-0.6-0.5-1.1-0.5c-0.5,0-0.8,0.1-1.1,0.4c-0.3,0.3-0.4,0.7-0.4,1.2
				c0,0.6,0.1,1,0.4,1.3c0.3,0.3,0.6,0.4,1.1,0.4c0.5,0,0.8-0.1,1.1-0.4C27.2,71.4,27.3,71,27.3,70.5z"/>
			<path fill="#FFFFFF" d="M29.5,72.7v-4.6h0.7v0.9c0.2-0.4,0.4-0.7,0.7-0.8c0.2-0.2,0.5-0.3,0.9-0.3c0.1,0,0.2,0,0.3,0
				c0.1,0,0.2,0,0.3,0.1L32,68.8c-0.1,0-0.2-0.1-0.3-0.1c-0.1,0-0.2,0-0.2,0c-0.4,0-0.7,0.1-0.9,0.4c-0.2,0.3-0.3,0.7-0.3,1.3v2.2
				H29.5z"/>
			<path fill="#FFFFFF" d="M33.4,68.8h-0.8v-0.6h0.8v-1.8h0.8v1.8H35v0.6h-0.8v3.9h-0.8V68.8z"/>
			<path fill="#FFFFFF" d="M42.2,72.7v-2.7c0-0.5-0.1-0.8-0.3-1c-0.2-0.2-0.5-0.3-0.9-0.3c-0.2,0-0.4,0-0.6,0.1
				c-0.2,0.1-0.3,0.2-0.5,0.4c-0.1,0.1-0.2,0.3-0.2,0.4c0,0.2-0.1,0.4-0.1,0.8v2.4H39v-2.7c0-0.5-0.1-0.8-0.3-1
				c-0.2-0.2-0.5-0.3-0.9-0.3c-0.2,0-0.4,0-0.6,0.1c-0.2,0.1-0.3,0.2-0.5,0.4c-0.1,0.1-0.1,0.3-0.2,0.4c0,0.2-0.1,0.4-0.1,0.8v2.4
				h-0.8v-4.6h0.8v0.7c0.2-0.3,0.4-0.5,0.7-0.7c0.3-0.1,0.6-0.2,0.9-0.2c0.4,0,0.7,0.1,0.9,0.2c0.3,0.2,0.5,0.4,0.6,0.7
				c0.2-0.3,0.4-0.5,0.7-0.7c0.3-0.2,0.6-0.2,0.9-0.2c0.5,0,0.9,0.1,1.2,0.4c0.3,0.3,0.4,0.7,0.4,1.2v3.1H42.2z"/>
			<path fill="#FFFFFF" d="M48.4,70.6h-3.6v0.1c0,0.5,0.1,0.9,0.4,1.2c0.3,0.3,0.6,0.5,1.1,0.5c0.3,0,0.6-0.1,0.8-0.2
				c0.2-0.2,0.5-0.4,0.7-0.7l0.6,0.4c-0.2,0.4-0.5,0.7-0.9,0.9c-0.4,0.2-0.8,0.3-1.2,0.3c-0.7,0-1.3-0.2-1.7-0.7
				c-0.4-0.5-0.6-1.1-0.6-1.8c0-0.7,0.2-1.3,0.6-1.8c0.4-0.5,1-0.7,1.6-0.7c0.7,0,1.2,0.2,1.6,0.6c0.4,0.4,0.6,1,0.6,1.8V70.6z
				 M47.6,69.9c0-0.4-0.2-0.7-0.4-0.9c-0.2-0.2-0.6-0.3-1-0.3c-0.4,0-0.7,0.1-0.9,0.3c-0.3,0.2-0.4,0.5-0.4,0.9H47.6z"/>
			<path fill="#FFFFFF" d="M49.5,72.7v-4.6h0.8v0.7c0.2-0.3,0.4-0.5,0.7-0.7c0.3-0.1,0.6-0.2,1-0.2c0.5,0,1,0.1,1.3,0.4
				c0.3,0.3,0.5,0.7,0.5,1.2v3.1h-0.8v-2.7c0-0.5-0.1-0.8-0.3-1c-0.2-0.2-0.5-0.3-0.9-0.3c-0.2,0-0.4,0-0.6,0.1
				c-0.2,0.1-0.3,0.2-0.5,0.4c-0.1,0.1-0.2,0.3-0.2,0.4c0,0.2-0.1,0.4-0.1,0.8v2.4H49.5z"/>
			<path fill="#FFFFFF" d="M55.1,68.8h-0.8v-0.6h0.8v-1.8h0.8v1.8h0.8v0.6h-0.8v3.9h-0.8V68.8z"/>
			<path fill="#FFFFFF" d="M60,70.5c0-0.3,0.1-0.7,0.2-0.9c0.1-0.3,0.3-0.6,0.5-0.8c0.2-0.2,0.5-0.4,0.8-0.5c0.3-0.1,0.6-0.2,1-0.2
				c0.3,0,0.6,0.1,0.9,0.2c0.3,0.1,0.6,0.3,0.8,0.5c0.2,0.2,0.4,0.5,0.5,0.8c0.1,0.3,0.2,0.6,0.2,0.9c0,0.3-0.1,0.6-0.2,0.9
				c-0.1,0.3-0.3,0.6-0.5,0.8c-0.2,0.2-0.5,0.4-0.8,0.5c-0.3,0.1-0.6,0.2-0.9,0.2c-0.3,0-0.7-0.1-1-0.2c-0.3-0.1-0.6-0.3-0.8-0.5
				c-0.2-0.2-0.4-0.5-0.5-0.8C60,71.1,60,70.8,60,70.5z M60.8,70.5c0,0.5,0.2,0.9,0.5,1.2c0.3,0.3,0.7,0.5,1.2,0.5
				c0.5,0,0.8-0.2,1.2-0.5c0.3-0.3,0.5-0.7,0.5-1.2c0-0.5-0.2-0.9-0.5-1.2c-0.3-0.3-0.7-0.5-1.2-0.5c-0.5,0-0.9,0.2-1.2,0.5
				C61,69.6,60.8,70,60.8,70.5z"/>
			<path fill="#FFFFFF" d="M66.1,72.7v-3.9h-0.9v-0.6h0.9v-1.3c0-0.8,0.1-1.3,0.3-1.5c0.2-0.3,0.5-0.4,1-0.4c0.1,0,0.2,0,0.4,0
				c0.1,0,0.2,0,0.3,0.1v0.8c-0.1-0.1-0.2-0.1-0.3-0.1c-0.1,0-0.2,0-0.3,0c-0.2,0-0.4,0.1-0.5,0.2C67,66,66.9,66.4,66.9,67v1.2h1.2
				v0.6h-1.2v3.9H66.1z"/>
			<path fill="#FFFFFF" d="M71.7,72.7v-7.3h0.9v7.3H71.7z"/>
			<path fill="#FFFFFF" d="M74.1,72.7v-4.6h0.8v0.7c0.2-0.3,0.4-0.5,0.7-0.7c0.3-0.1,0.6-0.2,1-0.2c0.5,0,1,0.1,1.3,0.4
				c0.3,0.3,0.5,0.7,0.5,1.2v3.1h-0.8v-2.7c0-0.5-0.1-0.8-0.3-1c-0.2-0.2-0.5-0.3-0.9-0.3c-0.2,0-0.4,0-0.6,0.1
				c-0.2,0.1-0.3,0.2-0.5,0.4c-0.1,0.1-0.2,0.3-0.2,0.4c0,0.2-0.1,0.4-0.1,0.8v2.4H74.1z"/>
			<path fill="#FFFFFF" d="M79.8,72.7v-3.9H79v-0.6h0.9v-1.3c0-0.8,0.1-1.3,0.3-1.5c0.2-0.3,0.5-0.4,1-0.4c0.1,0,0.2,0,0.4,0
				c0.1,0,0.2,0,0.3,0.1v0.8c-0.1-0.1-0.2-0.1-0.3-0.1c-0.1,0-0.2,0-0.3,0c-0.2,0-0.4,0.1-0.5,0.2c-0.1,0.1-0.1,0.5-0.1,1.1v1.2h1.2
				v0.6h-1.2v3.9H79.8z"/>
			<path fill="#FFFFFF" d="M82.1,70.5c0-0.3,0.1-0.7,0.2-0.9c0.1-0.3,0.3-0.6,0.5-0.8c0.2-0.2,0.5-0.4,0.8-0.5
				c0.3-0.1,0.6-0.2,1-0.2c0.3,0,0.6,0.1,0.9,0.2c0.3,0.1,0.6,0.3,0.8,0.5c0.2,0.2,0.4,0.5,0.5,0.8c0.1,0.3,0.2,0.6,0.2,0.9
				c0,0.3-0.1,0.6-0.2,0.9c-0.1,0.3-0.3,0.6-0.5,0.8c-0.2,0.2-0.5,0.4-0.8,0.5c-0.3,0.1-0.6,0.2-0.9,0.2c-0.3,0-0.7-0.1-1-0.2
				c-0.3-0.1-0.6-0.3-0.8-0.5c-0.2-0.2-0.4-0.5-0.5-0.8C82.1,71.1,82.1,70.8,82.1,70.5z M82.9,70.5c0,0.5,0.2,0.9,0.5,1.2
				c0.3,0.3,0.7,0.5,1.2,0.5c0.5,0,0.8-0.2,1.2-0.5c0.3-0.3,0.5-0.7,0.5-1.2c0-0.5-0.2-0.9-0.5-1.2c-0.3-0.3-0.7-0.5-1.2-0.5
				c-0.5,0-0.9,0.2-1.2,0.5C83.1,69.6,82.9,70,82.9,70.5z"/>
			<path fill="#FFFFFF" d="M88.1,72.7v-4.6h0.7v0.9c0.2-0.4,0.4-0.7,0.7-0.8c0.2-0.2,0.5-0.3,0.9-0.3c0.1,0,0.2,0,0.3,0
				c0.1,0,0.2,0,0.3,0.1l-0.3,0.7c-0.1,0-0.2-0.1-0.3-0.1c-0.1,0-0.2,0-0.2,0c-0.4,0-0.7,0.1-0.9,0.4c-0.2,0.3-0.3,0.7-0.3,1.3v2.2
				H88.1z"/>
			<path fill="#FFFFFF" d="M97.9,72.7v-2.7c0-0.5-0.1-0.8-0.3-1c-0.2-0.2-0.5-0.3-0.9-0.3c-0.2,0-0.4,0-0.6,0.1
				c-0.2,0.1-0.3,0.2-0.4,0.4c-0.1,0.1-0.2,0.3-0.2,0.4c0,0.2-0.1,0.4-0.1,0.8v2.4h-0.8v-2.7c0-0.5-0.1-0.8-0.3-1
				c-0.2-0.2-0.5-0.3-0.9-0.3c-0.2,0-0.4,0-0.6,0.1c-0.2,0.1-0.3,0.2-0.5,0.4c-0.1,0.1-0.1,0.3-0.2,0.4c0,0.2-0.1,0.4-0.1,0.8v2.4
				h-0.8v-4.6h0.8v0.7c0.2-0.3,0.4-0.5,0.7-0.7c0.3-0.1,0.6-0.2,0.9-0.2c0.4,0,0.7,0.1,0.9,0.2c0.3,0.2,0.5,0.4,0.6,0.7
				c0.2-0.3,0.4-0.5,0.7-0.7c0.3-0.2,0.6-0.2,0.9-0.2c0.5,0,0.9,0.1,1.2,0.4c0.3,0.3,0.4,0.7,0.4,1.2v3.1H97.9z"/>
			<path fill="#FFFFFF" d="M104.4,68.2v4.6h-0.8v-0.8c-0.2,0.3-0.4,0.6-0.7,0.8c-0.3,0.2-0.6,0.3-1,0.3c-0.7,0-1.2-0.2-1.6-0.7
				c-0.4-0.5-0.6-1-0.6-1.8c0-0.7,0.2-1.3,0.6-1.8c0.4-0.4,0.9-0.7,1.6-0.7c0.4,0,0.7,0.1,1,0.3c0.3,0.2,0.5,0.4,0.7,0.8v-0.9H104.4
				z M103.6,70.5c0-0.5-0.1-0.9-0.4-1.2c-0.3-0.3-0.6-0.5-1.1-0.5c-0.5,0-0.8,0.1-1.1,0.4c-0.3,0.3-0.4,0.7-0.4,1.2
				c0,0.6,0.1,1,0.4,1.3c0.3,0.3,0.6,0.4,1.1,0.4c0.5,0,0.8-0.1,1.1-0.4C103.5,71.4,103.6,71,103.6,70.5z"/>
			<path fill="#FFFFFF" d="M106,68.8h-0.8v-0.6h0.8v-1.8h0.8v1.8h0.8v0.6h-0.8v3.9H106V68.8z"/>
			<path fill="#FFFFFF" d="M108.3,66c0-0.2,0.1-0.3,0.2-0.4c0.1-0.1,0.2-0.2,0.4-0.2c0.2,0,0.3,0.1,0.4,0.2c0.1,0.1,0.2,0.2,0.2,0.4
				c0,0.2-0.1,0.3-0.2,0.4c-0.1,0.1-0.2,0.2-0.4,0.2c-0.2,0-0.3-0.1-0.4-0.2C108.4,66.3,108.3,66.1,108.3,66z M108.5,72.7v-4.6h0.8
				v4.6H108.5z"/>
			<path fill="#FFFFFF" d="M110.4,70.5c0-0.3,0.1-0.7,0.2-0.9c0.1-0.3,0.3-0.6,0.5-0.8c0.2-0.2,0.5-0.4,0.8-0.5
				c0.3-0.1,0.6-0.2,1-0.2c0.3,0,0.6,0.1,0.9,0.2c0.3,0.1,0.6,0.3,0.8,0.5c0.2,0.2,0.4,0.5,0.5,0.8c0.1,0.3,0.2,0.6,0.2,0.9
				c0,0.3-0.1,0.6-0.2,0.9c-0.1,0.3-0.3,0.6-0.5,0.8c-0.2,0.2-0.5,0.4-0.8,0.5c-0.3,0.1-0.6,0.2-0.9,0.2c-0.3,0-0.7-0.1-1-0.2
				c-0.3-0.1-0.6-0.3-0.8-0.5c-0.2-0.2-0.4-0.5-0.5-0.8C110.5,71.1,110.4,70.8,110.4,70.5z M111.3,70.5c0,0.5,0.2,0.9,0.5,1.2
				c0.3,0.3,0.7,0.5,1.2,0.5c0.5,0,0.8-0.2,1.2-0.5c0.3-0.3,0.5-0.7,0.5-1.2c0-0.5-0.2-0.9-0.5-1.2c-0.3-0.3-0.7-0.5-1.2-0.5
				c-0.5,0-0.9,0.2-1.2,0.5C111.4,69.6,111.3,70,111.3,70.5z"/>
			<path fill="#FFFFFF" d="M116.5,72.7v-4.6h0.8v0.7c0.2-0.3,0.4-0.5,0.7-0.7c0.3-0.1,0.6-0.2,1-0.2c0.5,0,1,0.1,1.3,0.4
				c0.3,0.3,0.5,0.7,0.5,1.2v3.1h-0.8v-2.7c0-0.5-0.1-0.8-0.3-1c-0.2-0.2-0.5-0.3-0.9-0.3c-0.2,0-0.4,0-0.6,0.1
				c-0.2,0.1-0.4,0.2-0.5,0.4c-0.1,0.1-0.2,0.3-0.2,0.4c0,0.2-0.1,0.4-0.1,0.8v2.4H116.5z"/>
			<path fill="#FFFFFF" d="M125.1,72.7v-7.3h1.7c0.5,0,0.8,0,1.1,0.1c0.2,0.1,0.4,0.1,0.6,0.3c0.2,0.2,0.4,0.4,0.5,0.7
				c0.1,0.3,0.2,0.6,0.2,0.9c0,0.6-0.2,1.1-0.5,1.4c-0.3,0.3-0.8,0.5-1.5,0.5h-0.2l2.8,3.5h-1.1l-2.7-3.5H126v3.5H125.1z M126,66.2
				v2.4h0.7c0.7,0,1.1-0.1,1.4-0.3c0.2-0.2,0.3-0.5,0.3-0.9c0-0.5-0.1-0.8-0.4-1c-0.2-0.2-0.7-0.3-1.4-0.3H126z"/>
			<path fill="#FFFFFF" d="M134.5,70.6h-3.6v0.1c0,0.5,0.1,0.9,0.4,1.2c0.3,0.3,0.6,0.5,1.1,0.5c0.3,0,0.6-0.1,0.8-0.2
				c0.2-0.2,0.5-0.4,0.7-0.7l0.6,0.4c-0.2,0.4-0.5,0.7-0.9,0.9c-0.4,0.2-0.8,0.3-1.2,0.3c-0.7,0-1.3-0.2-1.7-0.7
				c-0.4-0.5-0.6-1.1-0.6-1.8c0-0.7,0.2-1.3,0.6-1.8c0.4-0.5,1-0.7,1.6-0.7c0.7,0,1.2,0.2,1.6,0.6c0.4,0.4,0.6,1,0.6,1.8V70.6z
				 M133.6,69.9c0-0.4-0.2-0.7-0.4-0.9s-0.6-0.3-1-0.3c-0.4,0-0.7,0.1-0.9,0.3c-0.3,0.2-0.4,0.5-0.4,0.9H133.6z"/>
			<path fill="#FFFFFF" d="M135.1,72l0.7-0.4c0.1,0.2,0.3,0.4,0.5,0.5c0.2,0.1,0.4,0.2,0.7,0.2c0.3,0,0.5-0.1,0.6-0.2
				c0.2-0.1,0.2-0.3,0.2-0.5c0-0.2-0.1-0.3-0.2-0.4c-0.1-0.1-0.3-0.2-0.6-0.3c0,0-0.1,0-0.1,0c-1.1-0.4-1.7-0.9-1.7-1.4
				c0-0.4,0.1-0.7,0.4-1c0.3-0.3,0.7-0.4,1.2-0.4c0.4,0,0.7,0.1,1,0.2c0.3,0.2,0.5,0.4,0.6,0.7l-0.6,0.4c-0.1-0.2-0.2-0.4-0.4-0.5
				c-0.2-0.1-0.4-0.2-0.6-0.2c-0.2,0-0.4,0.1-0.6,0.2c-0.1,0.1-0.2,0.3-0.2,0.5c0,0.3,0.3,0.5,0.9,0.7c0.1,0,0.2,0.1,0.3,0.1
				c0.5,0.2,0.8,0.3,1,0.5c0.2,0.2,0.3,0.5,0.3,0.8c0,0.4-0.2,0.8-0.5,1c-0.3,0.3-0.7,0.4-1.2,0.4c-0.4,0-0.8-0.1-1.1-0.2
				C135.5,72.5,135.3,72.3,135.1,72z"/>
			<path fill="#FFFFFF" d="M139.2,70.5c0-0.3,0.1-0.7,0.2-0.9c0.1-0.3,0.3-0.6,0.5-0.8c0.2-0.2,0.5-0.4,0.8-0.5
				c0.3-0.1,0.6-0.2,1-0.2c0.3,0,0.6,0.1,0.9,0.2c0.3,0.1,0.6,0.3,0.8,0.5c0.2,0.2,0.4,0.5,0.5,0.8c0.1,0.3,0.2,0.6,0.2,0.9
				c0,0.3-0.1,0.6-0.2,0.9c-0.1,0.3-0.3,0.6-0.5,0.8c-0.2,0.2-0.5,0.4-0.8,0.5c-0.3,0.1-0.6,0.2-0.9,0.2c-0.3,0-0.7-0.1-1-0.2
				c-0.3-0.1-0.6-0.3-0.8-0.5c-0.2-0.2-0.4-0.5-0.5-0.8C139.3,71.1,139.2,70.8,139.2,70.5z M140,70.5c0,0.5,0.2,0.9,0.5,1.2
				c0.3,0.3,0.7,0.5,1.2,0.5c0.5,0,0.8-0.2,1.2-0.5c0.3-0.3,0.5-0.7,0.5-1.2c0-0.5-0.2-0.9-0.5-1.2c-0.3-0.3-0.7-0.5-1.2-0.5
				c-0.5,0-0.9,0.2-1.2,0.5C140.2,69.6,140,70,140,70.5z"/>
			<path fill="#FFFFFF" d="M146,68.2v2.2c0,0.7,0.1,1.1,0.3,1.4c0.2,0.3,0.5,0.4,1,0.4c0.5,0,0.8-0.1,1-0.4c0.2-0.3,0.3-0.7,0.3-1.4
				v-2.2h0.8v2.7c0,0.7-0.2,1.2-0.5,1.6c-0.4,0.4-0.9,0.5-1.6,0.5c-0.7,0-1.2-0.2-1.5-0.5c-0.4-0.4-0.5-0.9-0.5-1.6v-2.7H146z"/>
			<path fill="#FFFFFF" d="M150.7,72.7v-4.6h0.7v0.9c0.2-0.4,0.4-0.7,0.7-0.8c0.2-0.2,0.5-0.3,0.9-0.3c0.1,0,0.2,0,0.3,0
				c0.1,0,0.2,0,0.3,0.1l-0.3,0.7c-0.1,0-0.2-0.1-0.3-0.1c-0.1,0-0.2,0-0.2,0c-0.4,0-0.7,0.1-0.9,0.4c-0.2,0.3-0.3,0.7-0.3,1.3v2.2
				H150.7z"/>
			<path fill="#FFFFFF" d="M157.5,71.7v0.9c-0.2,0.1-0.4,0.2-0.7,0.3c-0.3,0.1-0.5,0.1-0.8,0.1c-0.7,0-1.3-0.2-1.7-0.7
				c-0.4-0.4-0.6-1-0.6-1.8c0-0.7,0.2-1.3,0.7-1.8c0.4-0.5,1-0.7,1.7-0.7c0.3,0,0.5,0,0.7,0.1c0.2,0.1,0.5,0.1,0.7,0.2v0.8
				c-0.2-0.1-0.4-0.2-0.6-0.3c-0.2-0.1-0.4-0.1-0.6-0.1c-0.5,0-0.9,0.2-1.2,0.5c-0.3,0.3-0.5,0.7-0.5,1.3c0,0.5,0.2,0.9,0.5,1.2
				c0.3,0.3,0.7,0.5,1.2,0.5c0.2,0,0.5,0,0.7-0.1C157,72,157.2,71.8,157.5,71.7z"/>
			<path fill="#FFFFFF" d="M162.5,70.6h-3.6v0.1c0,0.5,0.1,0.9,0.4,1.2c0.3,0.3,0.6,0.5,1.1,0.5c0.3,0,0.6-0.1,0.8-0.2
				c0.2-0.2,0.5-0.4,0.7-0.7l0.6,0.4c-0.2,0.4-0.5,0.7-0.9,0.9c-0.4,0.2-0.8,0.3-1.2,0.3c-0.7,0-1.3-0.2-1.7-0.7
				c-0.4-0.5-0.6-1.1-0.6-1.8c0-0.7,0.2-1.3,0.6-1.8c0.4-0.5,1-0.7,1.6-0.7c0.7,0,1.2,0.2,1.6,0.6c0.4,0.4,0.6,1,0.6,1.8V70.6z
				 M161.7,69.9c0-0.4-0.2-0.7-0.4-0.9c-0.2-0.2-0.6-0.3-1-0.3c-0.4,0-0.7,0.1-0.9,0.3c-0.3,0.2-0.4,0.5-0.4,0.9H161.7z"/>
			<path fill="#FFFFFF" d="M163.1,72l0.7-0.4c0.1,0.2,0.3,0.4,0.5,0.5c0.2,0.1,0.4,0.2,0.7,0.2c0.3,0,0.5-0.1,0.6-0.2
				c0.2-0.1,0.2-0.3,0.2-0.5c0-0.2-0.1-0.3-0.2-0.4c-0.1-0.1-0.3-0.2-0.6-0.3c0,0-0.1,0-0.1,0c-1.1-0.4-1.7-0.9-1.7-1.4
				c0-0.4,0.1-0.7,0.4-1c0.3-0.3,0.7-0.4,1.2-0.4c0.4,0,0.7,0.1,1,0.2c0.3,0.2,0.5,0.4,0.6,0.7l-0.6,0.4c-0.1-0.2-0.2-0.4-0.4-0.5
				s-0.4-0.2-0.6-0.2c-0.2,0-0.4,0.1-0.6,0.2c-0.1,0.1-0.2,0.3-0.2,0.5c0,0.3,0.3,0.5,0.9,0.7c0.1,0,0.2,0.1,0.3,0.1
				c0.5,0.2,0.8,0.3,1,0.5c0.2,0.2,0.3,0.5,0.3,0.8c0,0.4-0.2,0.8-0.5,1c-0.3,0.3-0.7,0.4-1.2,0.4c-0.4,0-0.8-0.1-1.1-0.2
				C163.5,72.5,163.3,72.3,163.1,72z"/>
		</g>
	</g>
</g>
</svg>
