<?xml version="1.0" encoding="utf-8"?>
<!-- Generator: Adobe Illustrator 17.0.0, SVG Export Plug-In . SVG Version: 6.00 Build 0)  -->
<!DOCTYPE svg PUBLIC "-//W3C//DTD SVG 1.1//EN" "http://www.w3.org/Graphics/SVG/1.1/DTD/svg11.dtd">
<svg version="1.1" id="Layer_1" xmlns="http://www.w3.org/2000/svg" xmlns:xlink="http://www.w3.org/1999/xlink" x="0px" y="0px"
	 width="34.5px" height="36.3px" viewBox="0 0 34.5 36.3" enable-background="new 0 0 34.5 36.3" xml:space="preserve">
<g>
	<g>
		<path fill="#0099CC" d="M17.3,3.8c8,0,14.5,6.5,14.5,14.5s-6.5,14.5-14.5,14.5c-8,0-14.5-6.5-14.5-14.5S9.3,3.8,17.3,3.8
			 M17.3,1.8C8.1,1.8,0.8,9.1,0.8,18.3c0,9.1,7.4,16.5,16.5,16.5c9.1,0,16.5-7.4,16.5-16.5C33.8,9.1,26.4,1.8,17.3,1.8L17.3,1.8z"/>
	</g>
	<g>
		<g>
			<path fill="#009BDA" d="M15.7,20.8V20c0-0.7,0.1-1.2,0.4-1.7s0.8-1,1.5-1.5c0.7-0.5,1.2-0.9,1.4-1.3c0.2-0.3,0.3-0.7,0.3-1.1
				c0-0.4-0.2-0.8-0.5-1c-0.3-0.2-0.8-0.3-1.4-0.3c-1,0-2.2,0.3-3.5,1L13,11.8c1.5-0.9,3.1-1.3,4.9-1.3c1.4,0,2.5,0.3,3.4,1
				c0.8,0.7,1.2,1.6,1.2,2.7c0,0.8-0.2,1.4-0.5,1.9c-0.3,0.5-1,1.2-1.9,1.8c-0.7,0.5-1.1,0.9-1.2,1.1c-0.2,0.3-0.3,0.6-0.3,1v0.6
				H15.7z M15.4,24.3c0-0.6,0.2-1,0.5-1.3s0.8-0.4,1.3-0.4c0.6,0,1,0.2,1.3,0.5c0.3,0.3,0.5,0.7,0.5,1.3c0,0.5-0.2,1-0.5,1.3
				c-0.3,0.3-0.8,0.5-1.3,0.5c-0.6,0-1-0.2-1.3-0.5C15.6,25.3,15.4,24.8,15.4,24.3z"/>
		</g>
	</g>
</g>
</svg>
