<?xml version="1.0" encoding="utf-8"?>
<!-- Generator: Adobe Illustrator 17.0.0, SVG Export Plug-In . SVG Version: 6.00 Build 0)  -->
<!DOCTYPE svg PUBLIC "-//W3C//DTD SVG 1.1//EN" "http://www.w3.org/Graphics/SVG/1.1/DTD/svg11.dtd">
<svg version="1.1" id="Layer_1" xmlns="http://www.w3.org/2000/svg" xmlns:xlink="http://www.w3.org/1999/xlink" x="0px" y="0px"
	 width="24.5px" height="24.1px" viewBox="0 0 24.5 24.1" enable-background="new 0 0 24.5 24.1" xml:space="preserve">
<g>
	<rect x="-214" y="33.2" fill="none" width="276.4" height="93"/>
	<text transform="matrix(1 0 0 1 -214.0485 42.3299)"><tspan x="0" y="0" fill="#FFFFFF" font-family="'OpenSans-Bold'" font-size="12">© 2013 Department of Information Resources</tspan><tspan x="0" y="20" fill="#FFFFFF" font-family="'OpenSans'" font-size="12">300 W. 15th Street, Suite 1300</tspan><tspan x="0" y="38" fill="#FFFFFF" font-family="'OpenSans'" font-size="12">Austin, TX 78701  |  512.475.4700</tspan><tspan x="0" y="68" fill="#FFFFFF" font-family="'OpenSans-Semibold'" font-size="14">   </tspan><tspan x="10.9" y="68" fill="#FFFFFF" font-family="'OpenSans-Semibold'" font-size="14">V</tspan><tspan x="20.5" y="68" fill="#FFFFFF" font-family="'OpenSans-Semibold'" font-size="14">ie</tspan><tspan x="33" y="68" fill="#FFFFFF" font-family="'OpenSans-Semibold'" font-size="14">w on M</tspan><tspan x="82.1" y="68" fill="#FFFFFF" font-family="'OpenSans-Semibold'" font-size="14">a</tspan><tspan x="90.5" y="68" fill="#FFFFFF" font-family="'OpenSans-Semibold'" font-size="14">p</tspan></text>
	<g>
		<polygon fill="#FFFFFF" points="-210.7,101.1 -210.7,103.2 -208.2,105.8 -210.7,108.3 -210.7,110.4 -206,105.8 		"/>
		<polygon fill="#FFFFFF" points="-214,101.1 -214,103.2 -211.5,105.8 -214,108.3 -214,110.4 -209.4,105.8 		"/>
	</g>
</g>
<text transform="matrix(1 0 0 1 -202.1667 -10.7862)" fill="#FFFFFF" font-family="'OpenSansLight-Italic'" font-size="15">Stay up to date with DIR</text>
<path fill-rule="evenodd" clip-rule="evenodd" fill="#1FA3CF" stroke="#FFFFFF" stroke-miterlimit="10" d="M45.1,1.2
	c6.1,0,11.1,5,11.1,11.1c0,6.1-5,11.1-11.1,11.1c-6.1,0-11.1-5-11.1-11.1C34,6.2,39,1.2,45.1,1.2z"/>
<path fill-rule="evenodd" clip-rule="evenodd" fill="#436EAC" stroke="#FFFFFF" stroke-miterlimit="10" d="M12.1,1.2
	c6.1,0,11.1,5,11.1,11.1c0,6.1-5,11.1-11.1,11.1C6,23.5,1,18.5,1,12.4C1,6.2,6,1.2,12.1,1.2z"/>
<path fill="#FFFFFF" d="M15.5,10.6h-2.1V9.2c0-0.5,0.3-0.6,0.6-0.6c0.2,0,1.5,0,1.5,0V6.3l-2.1,0c-2.3,0-2.8,1.7-2.8,2.8v1.5H9.2
	v2.3h1.3c0,3,0,6.6,0,6.6h2.8c0,0,0-3.6,0-6.6h1.9L15.5,10.6z"/>
<path fill="#FFFFFF" d="M52.5,8.5c-0.5,0.2-1,0.4-1.6,0.4c0.6-0.3,1-0.9,1.2-1.6c-0.5,0.3-1.1,0.6-1.8,0.7c-0.5-0.5-1.2-0.9-2-0.9
	c-1.5,0-2.8,1.3-2.8,2.8c0,0.2,0,0.4,0.1,0.6c-2.3-0.1-4.4-1.2-5.7-2.9c-0.2,0.4-0.4,0.9-0.4,1.4c0,1,0.5,1.8,1.2,2.3
	c-0.5,0-0.9-0.1-1.3-0.4c0,0,0,0,0,0c0,1.4,1,2.5,2.2,2.8c-0.2,0.1-0.5,0.1-0.7,0.1c-0.2,0-0.4,0-0.5-0.1c0.4,1.1,1.4,1.9,2.6,1.9
	c-1,0.8-2.2,1.2-3.5,1.2c-0.2,0-0.4,0-0.7,0c1.2,0.8,2.7,1.3,4.3,1.3c5.1,0,7.9-4.3,7.9-8c0-0.1,0-0.2,0-0.4
	C51.6,9.5,52.1,9,52.5,8.5z"/>
<text transform="matrix(1 0 0 1 -121.1667 -80.3333)" fill="#FFFFFF" font-family="'Montserrat-Bold'" font-size="15">Back to Top</text>
<g>
	<polygon fill="#FFFFFF" points="-81.8,-105.7 -79.7,-105.7 -77.2,-108.2 -74.6,-105.7 -72.5,-105.7 -77.2,-110.3 	"/>
	<polygon fill="#FFFFFF" points="-81.8,-102.3 -79.7,-102.3 -77.2,-104.9 -74.6,-102.3 -72.5,-102.3 -77.2,-107 	"/>
</g>
</svg>
