<?xml version="1.0" encoding="utf-8"?>
<!-- Generator: Adobe Illustrator 17.0.0, SVG Export Plug-In . SVG Version: 6.00 Build 0)  -->
<!DOCTYPE svg PUBLIC "-//W3C//DTD SVG 1.1//EN" "http://www.w3.org/Graphics/SVG/1.1/DTD/svg11.dtd">
<svg version="1.1" id="Layer_1" xmlns="http://www.w3.org/2000/svg" xmlns:xlink="http://www.w3.org/1999/xlink" x="0px" y="0px"
	 width="38.5px" height="32.8px" viewBox="0 0 38.5 32.8" enable-background="new 0 0 38.5 32.8" xml:space="preserve">
<g>
	<path fill="#0099CC" d="M30.7,2.9c0.1,0,0.3,0,0.4,0c0.6,0.1,1.1,0.5,1.2,1.2l0.5,3.5h1.7l-0.6-3.8c-0.2-1.4-1.3-2.4-2.7-2.6
		c-0.3,0-0.6,0-0.8,0L11.3,4.2C10.6,4.3,10.1,4.6,9.6,5h7.5L30.7,2.9z"/>
	<path fill="#0099CC" d="M35.1,9.6H16.2V9.2c0-1.3-1-2.3-2.3-2.3H3.5c-1.3,0-2.3,1-2.3,2.3v19.7c0,1.3,1,2.3,2.3,2.3h31.7
		c1.3,0,2.3-1,2.3-2.3v-17C37.4,10.6,36.4,9.6,35.1,9.6z"/>
</g>
</svg>
