<?xml version="1.0" encoding="utf-8"?>
<!-- Generator: Adobe Illustrator 17.1.0, SVG Export Plug-In . SVG Version: 6.00 Build 0)  -->
<!DOCTYPE svg PUBLIC "-//W3C//DTD SVG 1.1//EN" "http://www.w3.org/Graphics/SVG/1.1/DTD/svg11.dtd">
<svg version="1.1" id="Layer_1" xmlns="http://www.w3.org/2000/svg" xmlns:xlink="http://www.w3.org/1999/xlink" x="0px" y="0px"
	 viewBox="0 0 53.897 48.804" enable-background="new 0 0 53.897 48.804" xml:space="preserve">
<g>
	<polygon fill="#0099CC" points="-0.012,21.575 0,21.575 -0.012,21.565 	"/>
	<path fill="#0099CC" d="M53.897,25.033c-0.181-0.26-0.363-0.433-0.271-0.606c0.087-0.173,0.134-0.519,0.043-0.609
		c-0.089-0.087-0.567-0.517-0.475-0.693c0.089-0.173,0.306-0.52,0.123-0.78c-0.181-0.26-0.524-0.782-0.524-0.782l-0.341-0.43v-4.76
		v-2.351c0-0.173-0.363-0.087-0.455-0.173c-0.089-0.087-0.271,0.173-0.363,0.087c-0.089-0.087-0.089-0.087-0.27-0.087
		s-0.77,0-0.77-0.087c0-0.01-0.143-0.02-0.143-0.031c0-0.005,0-0.008,0-0.013c0-0.008,0.129,0.214,0.129,0.209
		C50.559,13.876,50.653,14,50.574,14h-0.003c-0.018,0-0.038-0.241-0.061-0.249c-0.013-0.005-0.023-0.121-0.033-0.123
		c-0.013-0.003-0.02-0.059-0.031-0.059c-0.023-0.005-0.048-0.036-0.079-0.036c-0.273,0-0.451-0.187-0.631-0.274
		c-0.181-0.087-0.273-0.18-0.451-0.18c-0.183,0-0.454-0.35-0.543-0.439c-0.091-0.084-0.364-0.086-0.542-0.259
		c-0.181-0.173-0.273-0.35-0.453-0.35c-0.181,0-0.27,0.259-0.453,0.348c-0.178,0.084-0.451,0.173-0.721,0.084
		c-0.273-0.084-0.362-0.257-0.362-0.257s-0.181-0.087-0.362,0c-0.181,0.084-0.453,0.173-0.453,0.173s-0.178,0.346-0.362,0.257
		c-0.181-0.084-0.359-0.173-0.359-0.173s-0.815,0.089-0.907,0.173c-0.089,0.089-0.178,0.346-0.27,0.346
		c-0.089,0-0.362,0.089-0.362,0.089l-0.089,0.26c0,0-0.273-0.173-0.364-0.26c-0.089-0.089-0.089-0.176-0.362-0.262
		c-0.27-0.084-0.359-0.084-0.359-0.257c0-0.173-0.273-0.262-0.273-0.262s-0.181,0.262-0.27,0.262c-0.091,0-0.273,0.173-0.362,0
		c-0.089-0.173-0.181,0-0.273-0.089c-0.089-0.084-0.089-0.433-0.181-0.433s-0.362,0.089-0.362,0.176
		c0,0.084,0.284,0.346,0.104,0.346s0.104-0.089,0.104,0.084s0,0.522,0,0.522s-0.554,0.087-0.644-0.087
		c-0.092-0.176-0.142-0.52-0.142-0.609c0-0.084-0.343-0.257-0.524-0.173c-0.181,0.089-0.397,0.346-0.397,0.346s-0.199,0.089-0.29,0
		c-0.089-0.084-0.098-0.346-0.19-0.346c-0.089,0-0.364,0.173-0.455,0c-0.089-0.171-0.183-0.433-0.272-0.433
		c-0.092,0-0.363,0.262-0.363,0.262s-0.181,0.344-0.273,0.344c-0.089,0-0.362-0.084-0.451-0.084c-0.092,0-0.273-0.089-0.181-0.26
		c0.089-0.173,0.089-0.173-0.181-0.262c-0.273-0.087-0.453-0.257-0.362-0.433c0.089-0.176,0.089-0.347-0.092-0.26
		c-0.178,0.084-0.451,0.173-0.632,0.084c-0.181-0.084-0.362-0.257-0.453-0.084c-0.089,0.173-0.089,0.436-0.362,0.347
		c-0.27-0.087-0.359-0.262-0.451-0.347c-0.092-0.087-0.092-0.087-0.362,0c-0.273,0.084-0.904,0-0.993-0.087
		c-0.091-0.087-0.273-0.26-0.453-0.173c-0.181,0.087-0.453,0.173-0.632,0c-0.181-0.173-0.181-0.436-0.27-0.695
		c-0.092-0.26-0.542-0.433-0.542-0.433c-0.092,0.087-0.092,0.26-0.273,0.26c-0.181,0-0.362-0.087-0.362-0.087
		s-0.181,0.087-0.362,0.087c-0.181,0-0.364-0.128-0.542-0.301C28.766,9.561,28.404,9,28.315,9c-0.091,0-0.864,0-0.864,0V0H15.532
		l-0.234,22H0c0.033,0,0.468,0.219,0.728,0.386c0.038,0.026,0.226-0.053,0.272-0.02c0.288,0.209,0.795,0.538,1.03,0.988
		c0.273,0.517,0.668,0.666,1.213,0.837c0.542,0.176,0.56,0.506,0.922,0.855c0.359,0.346,0.822,0.689,1.183,1.122
		c0.362,0.433,0.639,0.516,1.268,0.779c0.634,0.26,0.728,0.602,1.09,0.864c0.407,0.293,0.18,0.689,0.363,0.952
		c0.18,0.257,0.543,1.041,0.543,1.471c0,0.436,0.27,0.955,0.451,1.301s0.723,0.868,1.174,1.041c0.454,0.171,0.454,0.346,0.634,0.693
		c0.181,0.346,1.085,0.346,1.355,0.522c0.273,0.171,0.453,0.43,0.904,0.517c0.451,0.089,0.451,0.26,0.815,0.435
		c0.359,0.173,0.721,0.344,1.082,0.26c0.362-0.087,0.181-0.26,0.181-0.26s0.273-0.435,0.453-0.435c0.181,0,0.27-0.173,0.27-0.433
		c0-0.26,0.092-0.346,0.183-0.346c0.087,0,0.178-0.346,0.178-0.519c0-0.173,0.364-1.042,0.543-1.128
		c0.181-0.087,0.634-0.346,0.815-0.346s0.451-0.087,0.451-0.346c0-0.26,0.543,0,0.723,0.087c0.181,0.087,0.634,0.087,0.812,0.087
		c0.181,0,0.723,0,0.996,0.087c0.27,0.087,0.812-0.087,0.993-0.087c0.181,0,0.453,0.26,0.453,0.26s0.362,0.609,0.543,0.955
		c0.181,0.346,0.812,0.346,0.902,0.433c0.091,0.087,0.542,0.433,0.996,0.693c0.451,0.26,0.451,0.606,0.542,0.78
		c0.092,0.175,0.181,0.695,0.453,1.215c0.27,0.52,0.632,1.215,0.902,1.475c0.27,0.26,0.27,1.039,0.815,1.474
		c0.196,0.155,0.723,0.52,0.994,1.039c0.27,0.52,0.723,1.126,0.993,1.301c0.273,0.173,0.726,0.346,0.815,0.695
		c0.089,0.341-0.181,0.69-0.089,0.863c0.089,0.173,0.27,0.262,0.359,0.606c0.092,0.349-0.181,0.609,0.092,0.782
		c0.27,0.173,0.451,0.606,0.542,0.866c0.092,0.26,0.451,1.126,0.54,1.212c0.091,0.089,0.183,0.349,0.183,0.522
		c0,0.173,0.723,0.173,1.085,0.173c0.359,0,0.27,0.173,0.632,0.433c0.362,0.262,0.543,0.089,0.812,0.262
		c0.273,0.171,0.723,0.519,1.087,0.606c0.359,0.087,0.812,0.087,1.082,0.087s1.177,0.173,1.266,0.26
		c0.092,0.084,0.543,0.346,0.812,0.433c0.273,0.087,0.545-0.173,0.723-0.26c0.11-0.053,0.255-0.074,0.428-0.061
		c-0.023-0.031-0.046-0.064-0.064-0.112c-0.183-0.433-0.453-0.695-0.542-1.126c-0.092-0.435-0.183-0.608-0.364-0.868
		c-0.181-0.26-0.181-0.436-0.27-0.955c-0.092-0.52-0.359-0.693-0.359-0.952c0-0.26,0.089-0.52,0.267-0.693
		c0.181-0.176,0.181-0.433,0.092-0.866c-0.074-0.351,0-0.176,0.27-0.436c0.273-0.257,0.273-0.257,0.364-0.609
		c0.089-0.346,0.178-0.952,0-1.212c-0.183-0.26-0.364-0.346-0.273-0.519c0.089-0.173,0.632,0,0.904,0.173
		c0.27,0.173,0.27-0.26,0.451-0.779c0.181-0.52,0-0.436-0.181-0.436c-0.181,0-0.27-0.084-0.089-0.257
		c0.181-0.173,0.542,0.084,0.993-0.089c0.453-0.173,0.273-0.26,0.273-0.433c0-0.173,0.089-0.606,0.089-0.606s0.451,0.26,0.723,0.26
		c0.27,0,0.634-0.346,0.723-0.609c0.089-0.257-0.543-0.69-0.723-0.952c-0.181-0.26,0.451,0,1.177,0.089
		c0.721,0.084,0.631,0.084,1.355,0.084c0.721,0,0.542-0.26,1.355-0.52c0.815-0.26,0.996-0.433,1.627-0.866
		c0.634-0.433,0.453-0.695,0.815-0.869c0.359-0.173,0.721-1.039,0.993-1.212c0.27-0.173,0.362-0.087,0.723-0.087
		c0.362,0,0.451-0.173,0.904-0.346c0.451-0.176,0.904-0.26,1.174-0.519c0.153-0.148,0.624-0.27,1.103-0.377
		c-0.041-0.041-0.082-0.089-0.107-0.145c-0.092-0.173,0.089-0.78,0.27-0.868c0.181-0.084,0.361-0.52,0.453-0.69
		c0.089-0.173,0.181-0.782,0.089-0.868c-0.089-0.087-0.181-0.257-0.181-0.433c0-0.173,0.237-0.27,0.181-0.433
		c-0.089-0.26-0.537-0.606-0.359-0.868c0.184-0.257,0.008-1.039,0.008-1.212v-0.52C53.451,25.466,54.078,25.293,53.897,25.033z"/>
</g>
</svg>
