<?xml version="1.0" encoding="utf-8"?>
<!-- Generator: Adobe Illustrator 17.0.0, SVG Export Plug-In . SVG Version: 6.00 Build 0)  -->
<!DOCTYPE svg PUBLIC "-//W3C//DTD SVG 1.1//EN" "http://www.w3.org/Graphics/SVG/1.1/DTD/svg11.dtd">
<svg version="1.1" id="Layer_1" xmlns="http://www.w3.org/2000/svg" xmlns:xlink="http://www.w3.org/1999/xlink" x="0px" y="0px"
	 width="55.4px" height="39.6px" viewBox="0 0 55.4 39.6" enable-background="new 0 0 55.4 39.6" xml:space="preserve">
<g>
	<path fill="#0099CC" d="M0.7,32.6v2c0,2.2,1.8,4,4,4h45.8c2.2,0,4-1.8,4-4v-2H0.7z M11.5,7.1h32.3v23.5h5.4V5.2
		c0-2-1.6-3.6-3.6-3.6h-36c-2,0-3.6,1.6-3.6,3.6v25.4h5.4V7.1z"/>
	<line fill="none" stroke="#009BDA" stroke-miterlimit="10" x1="22.5" y1="11.9" x2="12.5" y2="11.9"/>
	<line fill="none" stroke="#009BDA" stroke-miterlimit="10" x1="22.5" y1="13.9" x2="12.5" y2="13.9"/>
	<line fill="none" stroke="#009BDA" stroke-miterlimit="10" x1="22.5" y1="15.9" x2="12.5" y2="15.9"/>
	<line fill="none" stroke="#009BDA" stroke-miterlimit="10" x1="22.5" y1="17.9" x2="12.5" y2="17.9"/>
	<line fill="none" stroke="#009BDA" stroke-miterlimit="10" x1="22.5" y1="19.9" x2="12.5" y2="19.9"/>
	<line fill="none" stroke="#009BDA" stroke-miterlimit="10" x1="22.5" y1="21.9" x2="12.5" y2="21.9"/>
	<line fill="none" stroke="#009BDA" stroke-miterlimit="10" x1="22.5" y1="23.9" x2="12.5" y2="23.9"/>
	<line fill="none" stroke="#009BDA" stroke-miterlimit="10" x1="29.5" y1="25.9" x2="12.5" y2="25.9"/>
	<line fill="none" stroke="#009BDA" stroke-miterlimit="10" x1="29.5" y1="27.9" x2="12.5" y2="27.9"/>
	<g>
		<path fill="#0099CC" d="M32.6,30.7c-0.1,0.1-0.2,0.1-0.4,0.1h-0.1l-0.1,0c-0.1,0-0.3-0.1-0.4-0.2c-0.1,0-0.2,0-0.3,0c0,0,0,0,0,0
			c-0.1,0-0.3,0-0.5,0c-0.2,0-0.4-0.2-0.5-0.3c0,0,0,0,0,0c0,0,0,0,0,0c-0.1,0-0.2,0-0.4-0.2c0,0-0.1,0-0.1-0.1
			c-0.3,0-0.7-0.1-0.8-0.5c-0.1-0.2-0.2-0.4-0.3-0.6c0-0.1-0.1-0.1-0.1-0.1c-0.1,0-0.3-0.2-0.2-0.6c0,0-0.1-0.1-0.1-0.1
			c-0.1-0.1-0.1-0.3-0.1-0.4l0,0c-0.2-0.2-0.5-0.5-0.6-0.7c0-0.1-0.2-0.2-0.2-0.2c-0.3-0.2-0.4-0.5-0.4-0.6
			c-0.1-0.1-0.3-0.4-0.4-0.7c-0.1-0.2-0.1-0.3-0.2-0.4l0,0l0-0.1c-0.1-0.1-0.2-0.1-0.3-0.2c-0.2,0-0.4-0.1-0.6-0.4
			c0,0-0.1-0.1-0.1-0.2c-0.1,0-0.1,0-0.2,0h-0.1l-0.1,0c0,0-0.1,0-0.2,0c-0.1,0-0.3,0-0.4,0c-0.1,0.1-0.2,0.1-0.3,0.1c0,0,0,0-0.1,0
			c0,0,0,0.1-0.1,0.1c0,0.1,0,0.3-0.1,0.4c0,0.2-0.2,0.3-0.3,0.4c0,0.1-0.2,0.3-0.4,0.3l-0.1,0l-0.1,0c-0.2,0-0.4-0.1-0.6-0.2
			c-0.1,0-0.2-0.1-0.2-0.1c-0.2,0-0.4-0.2-0.5-0.2c-0.3-0.1-0.6-0.1-0.7-0.4l0,0c-0.3-0.1-0.6-0.4-0.7-0.6c-0.1-0.2-0.2-0.4-0.2-0.7
			c0,0-0.1-0.2-0.1-0.3C20,22.8,20,22.7,20,22.6c0,0-0.1-0.1-0.1-0.1c-0.1-0.1-0.1-0.1-0.1-0.1c-0.3-0.1-0.5-0.2-0.7-0.4
			c-0.1-0.1-0.2-0.2-0.3-0.2l-0.2-0.1c-0.1-0.1-0.1-0.2-0.2-0.2c-0.2-0.1-0.5-0.2-0.7-0.6c0-0.1-0.1-0.2-0.2-0.2
			c-0.2-0.2-0.4-0.4-0.4-0.5l0-0.1v-0.7h5.7l0.1-8.2h5.7v3.7c0.1,0.1,0.1,0.1,0.2,0.2l0.1,0l0.1-0.1l0.3,0.1c0.1,0,0.3,0.2,0.5,0.4
			c0.1,0,0.2,0.1,0.3,0.1l0,0l0.2,0c0.1,0,0.1,0,0.2,0c0.1,0,0.1,0,0.2,0h0.1l0.1,0.1c0,0,0.1,0,0.2,0h0.3l0.2,0.2c0,0,0,0,0,0.1
			c0.1,0,0.1,0,0.2,0c0.2,0,0.3,0.1,0.4,0.2l0.3,0c0.1,0,0.1,0,0.2,0c0.1-0.1,0.3-0.1,0.4-0.1h0.4l0,0.1l0.2,0
			c0.1,0,0.2,0.1,0.3,0.2c0.1-0.1,0.3-0.1,0.6-0.2l0.1,0l0,0l0,0c0,0,0.1,0,0.1,0l0.1,0l0.2,0c0.1,0,0.2,0,0.3,0.1l0,0
			c0.1-0.1,0.2-0.1,0.4-0.1c0.3,0,0.4,0.2,0.5,0.2c0.1,0,0.2,0.1,0.2,0.1l0,0c0.1,0,0.2,0.1,0.3,0.1c0.1,0,0.1,0.1,0.1,0.1l0.1,0
			l0.1,0c0.1,0,0.1,0.1,0.2,0.1c0,0,0.1,0,0.1,0c0,0,0.1,0,0.1,0h0.2l0.1,0.1c0.1,0,0.2,0.1,0.3,0.2l0.2,0.1v2.8l0.3,0.4
			c0.1,0.1,0.1,0.3,0.1,0.5c0.1,0.1,0.2,0.3,0.2,0.4c0,0,0.1,0.1,0.1,0.1c0.2,0.2,0.1,0.4,0.1,0.5l0,0.2c0,0.2-0.2,0.6-0.3,0.7
			l0.1,0.2l-0.1,0.1c0.1,0.3-0.1,0.7-0.1,0.7c0,0.1-0.1,0.2-0.1,0.3l0.5,0.5l-0.9,0.1c-0.2,0-0.2,0.1-0.3,0.1
			c-0.1,0.1-0.3,0.2-0.4,0.2l-0.1,0l-0.1,0c-0.1,0-0.2,0.1-0.4,0.1h0c0,0,0,0,0,0c-0.1,0.1-0.2,0.3-0.3,0.4
			c-0.1,0.1-0.2,0.2-0.3,0.3l-0.1,0.1c-0.2,0.1-0.3,0.2-0.7,0.3c-0.1,0-0.1,0-0.1,0.1c-0.1,0.1-0.3,0.2-0.6,0.2c-0.1,0-0.2,0-0.2,0
			c-0.1,0.2-0.3,0.5-0.6,0.5c-0.1,0.1-0.2,0.2-0.3,0.3c0,0,0,0.1,0,0.1c-0.1,0.2-0.2,0.4-0.3,0.5c0,0.1,0,0.2,0,0.3
			c0,0.2-0.1,0.3-0.2,0.4c0,0.1,0,0.3-0.1,0.5c0,0.1,0.1,0.2,0.1,0.3l0,0.2c0.1,0.1,0.2,0.2,0.2,0.5c0,0,0,0.1,0.1,0.1
			c0,0.1,0.1,0.1,0.1,0.2l0.7,0.9L32.6,30.7z"/>
		<path fill="#FFFFFF" d="M28.1,11.5v3.6c0,0,0.1,0,0.2,0c0,0,0.2,0.2,0.2,0.3c0.1,0.1,0.1,0.1,0.2,0.1c0.1,0,0.1,0,0.1,0
			s0.1,0,0.1,0c0.1,0,0.1-0.1,0.1-0.1c0,0,0.2,0.1,0.2,0.2c0,0.1,0,0.2,0.1,0.3c0,0,0.1,0,0.1,0c0,0,0.1,0,0.1,0c0,0,0,0,0,0
			c0.1,0,0.1,0,0.1,0.1c0,0,0.2,0,0.3,0c0,0,0.1,0,0.1,0c0.1,0,0.1,0,0.1,0s0,0,0,0c0,0,0.1,0.1,0.2,0.1c0,0,0,0,0,0
			c0.1,0,0.1-0.1,0.1-0.1c0,0,0,0,0,0c0,0,0.1,0,0.1,0.1c0,0,0,0,0.1,0c0.1,0,0.1,0,0.2,0c0,0,0,0,0,0c0,0,0,0.1,0,0.1
			c0,0.1,0,0.1,0.1,0.2c0.1,0,0.1,0,0.1,0.1c0,0.1,0,0.1,0.1,0.1c0,0,0.1,0,0.2,0c0,0,0.1-0.1,0.1-0.1s0.1-0.1,0.1-0.1
			c0,0,0.1,0.1,0.1,0.2c0,0,0,0,0.1,0c0,0,0.1,0,0.1,0c0,0,0,0.1,0.1,0.1c0,0,0,0,0,0c0,0,0.1,0,0.1,0s0.1-0.1,0.1-0.1c0,0,0,0,0,0
			c0.1,0,0.1,0,0.1,0.1c0,0,0,0.2,0,0.2c0,0,0,0,0.1,0c0,0,0,0,0.1,0c0.1,0,0-0.1,0-0.2c0,0,0,0,0,0c0,0,0,0,0.1,0
			c0.1,0,0.1-0.1,0.1-0.1c0,0,0.1-0.1,0.1-0.1c0,0,0,0.1,0.1,0.2c0,0,0,0,0,0c0,0,0,0,0,0c0,0,0,0,0,0c0,0,0,0,0,0c0,0,0.1,0,0.1,0
			c0,0,0.1-0.1,0.1-0.1s0.1,0,0.1,0.1s0,0.1,0.1,0.1c0.1,0,0.1,0.1,0.1,0.1c0,0,0.1,0.1,0.1,0.1l0-0.1c0,0,0.1,0,0.1,0
			c0,0,0.1-0.1,0.1-0.1c0,0,0.3-0.1,0.3-0.1s0.1,0,0.1,0.1c0,0,0,0,0,0c0.1,0,0.1-0.1,0.1-0.1s0.1,0,0.2-0.1c0,0,0,0,0.1,0
			c0,0,0.1,0,0.1,0s0,0.1,0.1,0.1c0,0,0.1,0,0.1,0c0.1,0,0.1,0,0.2,0c0.1,0,0.1-0.1,0.2-0.1c0.1,0,0.1,0.1,0.2,0.1
			c0.1,0.1,0.2,0.1,0.2,0.1c0,0,0.1,0.2,0.2,0.2c0.1,0,0.1,0,0.2,0.1c0.1,0,0.1,0.1,0.2,0.1c0,0,0,0,0,0c0,0,0,0,0,0c0,0,0,0,0,0
			c0,0,0,0,0,0h0c0,0,0,0,0.1,0.1c0,0,0,0,0,0c0,0,0,0,0,0c0,0,0,0,0,0c0,0,0.2,0,0.2,0c0.1,0,0.1,0,0.1,0c0,0,0,0,0,0
			c0,0,0.1,0,0.1,0c0,0,0,0,0,0c0,0,0.1,0,0.2,0.1v0.9v1.8l0.1,0.2c0,0,0.1,0.2,0.2,0.3c0.1,0.1,0,0.2,0,0.3c0,0.1,0.2,0.2,0.2,0.3
			c0,0,0.1,0.2,0,0.2c0,0.1,0.1,0.1,0.2,0.2c0.1,0.1,0,0.2,0,0.3v0.2c0,0.1-0.1,0.4-0.2,0.5c-0.1,0.1-0.1,0.2-0.1,0.3
			c0,0.1-0.1,0.1-0.1,0.2c0,0.1,0,0.1,0.1,0.2c0,0,0,0.3,0,0.3c0,0.1-0.1,0.2-0.2,0.3c-0.1,0-0.1,0.3-0.1,0.3c0,0,0,0,0,0.1
			c-0.2,0-0.4,0.1-0.4,0.1c-0.1,0.1-0.3,0.1-0.5,0.2c-0.2,0.1-0.2,0.1-0.3,0.1c-0.1,0-0.1,0-0.2,0s-0.1,0-0.1,0
			c-0.1,0.1-0.2,0.4-0.4,0.5c-0.1,0.1-0.1,0.2-0.3,0.3c-0.2,0.2-0.3,0.2-0.6,0.3c-0.3,0.1-0.2,0.2-0.5,0.2c-0.3,0-0.2,0-0.5,0
			c-0.2,0-0.4-0.1-0.4-0.1c0,0,0,0,0,0c0.1,0.1,0.3,0.3,0.3,0.4c0,0.1-0.2,0.2-0.3,0.2c-0.1,0-0.3-0.1-0.3-0.1s0,0.2,0,0.2
			c0,0.1,0.1,0.1-0.1,0.2c0,0-0.1,0-0.1,0c-0.1,0-0.1,0-0.2,0c0,0-0.1,0-0.1,0c-0.1,0.1,0,0.1,0,0.1c0,0,0,0,0,0c0,0,0.1,0,0,0.2
			c-0.1,0.2-0.1,0.3-0.1,0.3c0,0,0,0,0,0c-0.1,0-0.2-0.1-0.3-0.1c0,0-0.1,0-0.1,0c0,0.1,0,0.1,0.1,0.2c0.1,0.1,0,0.3,0,0.5
			c0,0.1,0,0.1-0.1,0.2c-0.1,0.1-0.1,0-0.1,0.2c0,0.2,0,0.3,0,0.3C32,28.4,32,28.5,32,28.6s0.1,0.2,0.1,0.4c0,0.2,0,0.3,0.1,0.4
			c0.1,0.1,0.1,0.2,0.1,0.3c0,0.2,0.1,0.3,0.2,0.4c0,0,0,0,0,0c0,0,0,0,0,0c-0.1,0-0.1,0-0.1,0c-0.1,0-0.1,0.1-0.2,0.1c0,0,0,0,0,0
			c-0.1,0-0.3-0.1-0.3-0.2c0,0-0.4-0.1-0.5-0.1c-0.1,0-0.3,0-0.4,0c-0.1,0-0.3-0.2-0.4-0.2c-0.1-0.1-0.2,0-0.3-0.1
			c-0.1-0.1-0.1-0.2-0.2-0.2c-0.1,0-0.4,0-0.4-0.1c0-0.1,0-0.2-0.1-0.2c0,0-0.2-0.4-0.2-0.5c0-0.1-0.1-0.3-0.2-0.3
			c-0.1-0.1,0-0.2,0-0.3c0-0.1-0.1-0.2-0.1-0.2c0-0.1,0.1-0.2,0-0.3c0-0.1-0.2-0.2-0.3-0.3c-0.1-0.1-0.3-0.3-0.4-0.5
			c-0.1-0.2-0.3-0.3-0.4-0.4c-0.2-0.2-0.2-0.5-0.3-0.6c-0.1-0.1-0.2-0.4-0.3-0.6c-0.1-0.2-0.1-0.4-0.2-0.5c0-0.1,0-0.2-0.2-0.3
			c-0.2-0.1-0.3-0.2-0.4-0.3c0,0-0.3,0-0.3-0.2c-0.1-0.1-0.2-0.4-0.2-0.4s-0.1-0.1-0.2-0.1c-0.1,0-0.2,0-0.3,0c0,0-0.1,0-0.1,0
			c-0.1,0-0.3,0-0.4,0c-0.1,0-0.2,0-0.3,0c0,0-0.2-0.1-0.2-0.1c0,0-0.1,0-0.1,0c0,0.1-0.1,0.1-0.2,0.1c-0.1,0-0.2,0.1-0.3,0.1
			c-0.1,0-0.2,0.4-0.2,0.4s0,0.2-0.1,0.2c0,0-0.1,0-0.1,0.1s0,0.2-0.1,0.2s-0.2,0.2-0.2,0.2s0.1,0.1-0.1,0.1c0,0-0.1,0-0.1,0
			c-0.1,0-0.2-0.1-0.3-0.1c-0.1-0.1-0.1-0.1-0.3-0.2c-0.2,0-0.2-0.1-0.3-0.2c-0.1-0.1-0.5-0.1-0.5-0.2c-0.1-0.1-0.1-0.2-0.2-0.3
			c-0.2-0.1-0.4-0.3-0.5-0.4c-0.1-0.1-0.2-0.3-0.2-0.5c0-0.2-0.1-0.5-0.2-0.6c-0.1-0.1,0-0.3-0.1-0.4c-0.1-0.1-0.2-0.2-0.4-0.3
			c-0.2-0.1-0.3-0.1-0.5-0.3c-0.1-0.2-0.3-0.3-0.5-0.4c-0.1-0.1-0.1-0.3-0.3-0.3c-0.2-0.1-0.3-0.1-0.5-0.3c-0.1-0.2-0.3-0.3-0.4-0.4
			c0,0,0,0,0,0c-0.1-0.1-0.2-0.2-0.2-0.2v-0.1h5.6l0.1-8.2H28.1 M29.1,10.5h-1h-4.7h-1l0,1l-0.1,7.2h-4.7h-1v1v0.1v0.2l0.1,0.2
			c0.1,0.2,0.2,0.5,0.6,0.7c0,0,0.1,0.1,0.1,0.1c0.2,0.4,0.6,0.6,0.8,0.7c0,0.1,0.1,0.1,0.2,0.2c0.1,0.1,0.1,0.1,0.2,0.2
			c0.1,0.1,0.1,0.1,0.2,0.2c0.3,0.3,0.6,0.5,0.8,0.6l0,0c0,0.1,0.1,0.2,0.2,0.4c0,0,0,0,0,0.1c0,0.4,0.2,0.7,0.3,0.9
			c0.2,0.3,0.4,0.6,0.7,0.8c0.3,0.4,0.7,0.5,0.9,0.6c0.1,0.1,0.3,0.2,0.5,0.2c0.1,0,0.1,0.1,0.2,0.1c0.2,0.1,0.4,0.2,0.8,0.2
			c0.1,0,0.2,0,0.3,0c0.3-0.1,0.5-0.2,0.7-0.5c0.2-0.1,0.3-0.3,0.4-0.6c0.1-0.1,0.1-0.2,0.1-0.3c0,0,0,0,0,0c0.1,0,0.2,0,0.3,0
			c0,0,0,0,0,0c0,0,0.1,0,0.1,0c0.1,0,0.1,0,0.2,0c0.2,0.3,0.5,0.4,0.7,0.5c0,0,0.1,0.1,0.1,0.1c0,0.1,0.1,0.3,0.2,0.5
			c0.1,0.3,0.3,0.5,0.4,0.7c0.1,0.2,0.2,0.5,0.5,0.8l0,0l0,0c0,0,0.1,0.1,0.1,0.1c0,0.1,0.2,0.4,0.5,0.7c0,0.1,0,0.2,0.1,0.4
			c0,0,0,0,0,0c0,0.3,0.2,0.6,0.3,0.7c0.1,0.2,0.2,0.4,0.2,0.5c0.1,0.3,0.3,0.7,1.1,0.8c0.2,0.1,0.4,0.2,0.5,0.2
			c0.1,0.1,0.3,0.2,0.6,0.3C31,31,31.2,31,31.4,31c0,0,0,0,0.1,0c0.2,0.1,0.3,0.2,0.4,0.2l0.1,0l0.2,0c0.2,0,0.4-0.1,0.5-0.1l2,0.1
			l-1.3-1.7c0-0.1-0.1-0.1-0.1-0.2l0,0c-0.1-0.2-0.1-0.4-0.2-0.5l0-0.1c0-0.1,0-0.1,0-0.2c0-0.1,0.1-0.2,0.1-0.3
			c0.1-0.1,0.1-0.3,0.2-0.5c0,0,0-0.1,0-0.1c0.1-0.1,0.2-0.3,0.3-0.5c0.1-0.1,0.2-0.1,0.2-0.2c0.2-0.1,0.4-0.3,0.6-0.5
			c0.4,0,0.6-0.1,0.8-0.3c0.4-0.1,0.6-0.2,0.8-0.4l0.1-0.1c0.2-0.1,0.3-0.3,0.4-0.4c0.1-0.1,0.2-0.2,0.3-0.3c0.2,0,0.3-0.1,0.4-0.2
			c0.1,0,0.1,0,0.1,0c0.1,0,0.3-0.1,0.5-0.2c0,0,0.1,0,0.1,0l1.8-0.4l-0.8-0.8c0.1-0.2,0.2-0.5,0.1-0.9c0,0,0-0.1,0-0.1
			c0.1-0.2,0.3-0.5,0.3-0.9v-0.2c0-0.1,0-0.5-0.2-0.8c0,0,0-0.1-0.1-0.1c0-0.1-0.1-0.2-0.1-0.3c0-0.3-0.1-0.5-0.2-0.6l-0.2-0.2v-1.5
			V17v-0.4l-0.3-0.3c-0.1-0.1-0.2-0.2-0.3-0.2l-0.1-0.1l-0.4,0c0,0,0,0-0.1,0c0,0,0,0,0,0l-0.2-0.1H37c0,0,0,0,0,0
			c0,0-0.1,0-0.1-0.1c-0.1-0.1-0.2-0.2-0.3-0.2c-0.2-0.2-0.5-0.3-0.8-0.3c-0.1,0-0.3,0-0.4,0.1c-0.1,0-0.2,0-0.3,0
			c-0.2,0-0.3,0-0.5,0.1l-0.1,0c-0.2,0-0.3,0-0.5,0.1c-0.1,0-0.2-0.1-0.2-0.1L33,15.1L33,15.2c-0.1,0-0.3,0-0.4,0.1c0,0-0.1,0-0.1,0
			h-0.1c-0.2-0.1-0.4-0.2-0.5-0.2l-0.2-0.3l-0.6,0c-0.1,0-0.1,0-0.2,0c-0.1,0-0.2,0-0.3,0c0,0,0,0,0,0c-0.1,0-0.1,0-0.2,0
			c-0.1,0-0.1,0-0.2,0c-0.1,0-0.1,0-0.2,0c0,0-0.1,0-0.1,0c-0.2-0.2-0.5-0.4-0.6-0.4l-0.4-0.1v-2.7V10.5L29.1,10.5z"/>
	</g>
</g>
</svg>
