<?xml version="1.0" encoding="utf-8"?>
<!-- Generator: Adobe Illustrator 17.0.0, SVG Export Plug-In . SVG Version: 6.00 Build 0)  -->
<!DOCTYPE svg PUBLIC "-//W3C//DTD SVG 1.1//EN" "http://www.w3.org/Graphics/SVG/1.1/DTD/svg11.dtd">
<svg version="1.1" id="Layer_1" xmlns="http://www.w3.org/2000/svg" xmlns:xlink="http://www.w3.org/1999/xlink" x="0px" y="0px"
	 width="14.6px" height="16.4px" viewBox="0 0 14.6 16.4" enable-background="new 0 0 14.6 16.4" xml:space="preserve">
<g>
	<path fill="#FFFFFF" d="M13.3,6.8v8.4h-12V6.8h1.8V5c0-0.8,0.2-1.5,0.5-2.1c0.1-0.3,0.3-0.5,0.5-0.8c0.2-0.3,0.5-0.5,0.8-0.7
		c0.3-0.2,0.6-0.4,1-0.5c0.4-0.1,0.9-0.2,1.4-0.2c0.5,0,1,0.1,1.4,0.2s0.7,0.3,1,0.5c0.3,0.2,0.5,0.4,0.8,0.7
		C10.7,2.4,10.8,2.7,11,3c0.3,0.6,0.5,1.3,0.5,2.1v1.8H13.3z M9.7,5c0-0.1,0-0.3,0-0.6c0-0.3-0.1-0.5-0.3-0.8C9.3,3.4,9,3.2,8.7,3
		C8.4,2.7,7.9,2.6,7.3,2.6c-0.6,0-1.1,0.1-1.4,0.3C5.6,3.1,5.4,3.4,5.2,3.6C5.1,3.9,5,4.2,4.9,4.4c0,0.3,0,0.5,0,0.6v1.8h4.8V5z
		 M7.9,11.5c0.2-0.1,0.3-0.3,0.4-0.4c0.1-0.2,0.2-0.4,0.2-0.6c0-0.3-0.1-0.6-0.3-0.8C7.9,9.4,7.6,9.2,7.3,9.2C7,9.2,6.7,9.4,6.4,9.6
		c-0.2,0.2-0.3,0.5-0.3,0.8c0,0.2,0.1,0.4,0.2,0.6c0.1,0.2,0.3,0.3,0.4,0.4v2h1.2V11.5z"/>
</g>
</svg>
