<?xml version="1.0" encoding="utf-8"?>
<!-- Generator: Adobe Illustrator 17.0.0, SVG Export Plug-In . SVG Version: 6.00 Build 0)  -->
<!DOCTYPE svg PUBLIC "-//W3C//DTD SVG 1.1//EN" "http://www.w3.org/Graphics/SVG/1.1/DTD/svg11.dtd">
<svg version="1.1" id="Layer_1" xmlns="http://www.w3.org/2000/svg" xmlns:xlink="http://www.w3.org/1999/xlink" x="0px" y="0px"
	 width="39.3px" height="42.3px" viewBox="0 0 39.3 42.3" enable-background="new 0 0 39.3 42.3" xml:space="preserve">
<path fill="#0099CC" d="M26.8,18.8H6.7v1.1h20.1V18.8z M24.7,22.7H6.7v1.1h16.8L24.7,22.7z M20.8,26.6H6.7v1.1h12.9L20.8,26.6z
	 M3.9,34.3V3.5h25.8v14.2l1.1-1.1l1.1-1.1V1.2H1.6v35.4h11.2l0.7-2.3H3.9z M26.8,14.9H6.7V16h20.1V14.9z M6.7,31.6h9.1l1.1-1.1H6.7
	V31.6z M26.8,7.1H6.7v1.1h20.1V7.1z M37.9,17.2l-1.1-1.1c-0.5-0.5-1.1-0.7-1.7-0.7c-0.6,0-1.2,0.2-1.7,0.7l-1.6,1.6L31,18.6l0.9,0.9
	l3.6,3.6l2.4-2.4C38.8,19.7,38.8,18.2,37.9,17.2z M30,19.5L16,33.6l0.8,0.8l2.3,2.3l1.4,1.4l1.4-1.4L34.5,24l-2.6-2.6L30,19.5z
	 M26.8,11H6.7v1.1h20.1V11z M29.6,34.3h-3.2l-2.3,2.3h7.8v-7.8l-2.3,2.3V34.3z M13.5,40.6l2.9-1.1l-1.9-1.9L13.5,40.6z"/>
</svg>
