<svg xmlns="http://www.w3.org/2000/svg" width="23.7" height="25.4" viewBox="0 0 23.7 25.4">
  <defs>
    <style>
      .a {
        fill: #000202;
      }
    </style>
  </defs>
  <path class="a" d="M16.186,11.3652H3.2676v.7627H16.11l.076-.7627Zm-1.3678,2.5171H3.2676v.7627H14.0583Zm-2.5077,2.5171H3.2676v.7628h8.283ZM1.4438,21.4336V1.5255H18.01v9.1532l.76-.7628.76-.7627V0H0V22.8066H7.2191l.456-1.4492-6.2313.0762ZM16.186,8.9243H3.2676v.7628H16.11l.076-.7628ZM3.2676,19.603H9.0429l.76-.7628H3.2676ZM16.186,3.89H3.2676v.7628H16.11l.076-.7628Zm7.0671,6.4835-.6839-.6865a1.4652,1.4652,0,0,0-2.1277,0l-.9879.9916-.6079.5339.5319.5339,2.28,2.2883,1.52-1.5255A1.4191,1.4191,0,0,0,23.2531,10.3736Zm-5.0153,1.5255L9.1949,20.9l.4559.4577,1.4438,1.4492.9119.9153.9119-.9153,8.055-8.0853-1.6718-1.6781ZM16.186,6.4072H3.2676V7.17H16.11l.076-.7628ZM18.01,21.4336H15.958l-1.4438,1.4493h4.9394v-4.958L18.01,19.3742ZM7.5991,25.4l1.9-.6865-1.2158-1.22Z"/>
</svg>
