<?xml version="1.0" encoding="utf-8"?>
<!-- Generator: Adobe Illustrator 17.0.0, SVG Export Plug-In . SVG Version: 6.00 Build 0)  -->
<!DOCTYPE svg PUBLIC "-//W3C//DTD SVG 1.1//EN" "http://www.w3.org/Graphics/SVG/1.1/DTD/svg11.dtd">
<svg version="1.1" id="Layer_1" xmlns="http://www.w3.org/2000/svg" xmlns:xlink="http://www.w3.org/1999/xlink" x="0px" y="0px"
	 width="16.5px" height="19.2px" viewBox="0 0 16.5 19.2" enable-background="new 0 0 16.5 19.2" xml:space="preserve">
<g>
	<path fill="#0099CC" d="M6.2,9.7l3-3C8.8,6.5,8.5,6.4,8.2,6.3L5.5,9L6.2,9.7z"/>
	<path fill="#0099CC" d="M9.6,10.3L11,8.9c-0.1-0.3-0.3-0.6-0.4-0.9l-2.2,2.2H9.6z"/>
	<path fill="#0099CC" d="M5.1,8.6l2.5-2.5C7.4,6,7,6,6.7,6C6.6,6,6.5,6,6.5,6l-2,2L5.1,8.6z"/>
	<path fill="#0099CC" d="M10.3,10.3h0.9c0-0.3-0.1-0.5-0.1-0.8L10.3,10.3z"/>
	<path fill="#0099CC" d="M10.2,7.7C10,7.4,9.8,7.2,9.6,7l-3,3l0.3,0.3h0.7L10.2,7.7z"/>
	<path fill="#0099CC" d="M7,15.1c1.1-0.1,2.2-0.5,3-1.3c0.8-0.8,1.3-1.8,1.3-3H7V15.1z"/>
	<path fill="#0099CC" d="M2.2,10.5c0,2.4,1.9,4.4,4.3,4.5v-4.4L3.3,7.5C2.6,8.3,2.2,9.4,2.2,10.5z"/>
	<path fill="#0099CC" d="M5.6,6.2c-0.7,0.2-1.4,0.5-1.9,1l0.4,0.4L5.6,6.2z"/>
	<path fill="#0099CC" d="M11.5,3.4H1.9c-0.5,0-1,0.4-1,1v13.2c0,0.5,0.4,1,1,1h9.6c0.5,0,1-0.4,1-1V4.4C12.5,3.9,12,3.4,11.5,3.4z
		 M11.8,17.6c0,0.2-0.1,0.3-0.3,0.3H1.9c-0.2,0-0.3-0.1-0.3-0.3V4.4c0-0.2,0.1-0.3,0.3-0.3h9.6c0.2,0,0.3,0.1,0.3,0.3V17.6z"/>
	<path fill="#0099CC" d="M15,2.2L5.5,0.6C5,0.5,4.5,0.9,4.4,1.4L4.1,2.9h0.7l0.2-1.4c0-0.2,0.2-0.3,0.3-0.2l9.5,1.6
		c0.2,0,0.3,0.2,0.2,0.3l-2.2,13v0.9c0.3-0.1,0.6-0.4,0.7-0.8l2.2-13C15.9,2.8,15.5,2.3,15,2.2z"/>
</g>
</svg>
