<?xml version="1.0" encoding="utf-8"?>
<!-- Generator: Adobe Illustrator 17.0.0, SVG Export Plug-In . SVG Version: 6.00 Build 0)  -->
<!DOCTYPE svg PUBLIC "-//W3C//DTD SVG 1.1//EN" "http://www.w3.org/Graphics/SVG/1.1/DTD/svg11.dtd">
<svg version="1.1" id="Layer_1" xmlns="http://www.w3.org/2000/svg" xmlns:xlink="http://www.w3.org/1999/xlink" x="0px" y="0px"
	 width="27.6px" height="27.1px" viewBox="0 0 27.6 27.1" enable-background="new 0 0 27.6 27.1" xml:space="preserve">
<g>
	<path fill-rule="evenodd" clip-rule="evenodd" fill="#0099CC" d="M13.9,0.6c7.2,0,13,5.8,13,13c0,7.2-5.8,13-13,13
		c-7.2,0-13-5.8-13-13C0.9,6.4,6.8,0.6,13.9,0.6z"/>
	<g>
		<path fill="#FFFFFF" d="M8.4,14.7c1.7,1.7,4.4,1.9,6.3,0.7c0,0,0,0.1,0.1,0.1l3.6,4.2c0.6,0.6,1.5,0.6,2.1,0l0,0
			c0.6-0.6,0.6-1.5,0-2.1l-4.2-3.6c0,0-0.1,0-0.1-0.1c1.3-2,1-4.6-0.7-6.3c-2-2-5.2-2-7.1,0C6.4,9.5,6.4,12.7,8.4,14.7z M9.4,8.5
			c1.4-1.4,3.7-1.4,5.2,0c1.4,1.4,1.4,3.7,0,5.2c-1.4,1.4-3.7,1.4-5.2,0C8,12.3,8,9.9,9.4,8.5z"/>
	</g>
</g>
</svg>
