<?xml version="1.0" encoding="utf-8"?>
<!-- Generator: Adobe Illustrator 17.1.0, SVG Export Plug-In . SVG Version: 6.00 Build 0)  -->
<!DOCTYPE svg PUBLIC "-//W3C//DTD SVG 1.1//EN" "http://www.w3.org/Graphics/SVG/1.1/DTD/svg11.dtd">
<svg version="1.1" id="Layer_1" xmlns="http://www.w3.org/2000/svg" xmlns:xlink="http://www.w3.org/1999/xlink" x="0px" y="0px"
	 viewBox="0 0 65 58.786" style="enable-background:new 0 0 65 58.786;" xml:space="preserve">
<style type="text/css">
	.st0{fill:#FFFFFF;}
</style>
<path class="st0" d="M65.126,30.164c-0.218-0.313-0.642-0.521-0.532-0.73c0.104-0.208,0.059-0.625-0.051-0.733
	c-0.107-0.104-0.734-0.623-0.623-0.834c0.107-0.209,0.343-0.626,0.122-0.939c-0.218-0.313-0.632-0.941-0.632-0.941L63,25.469v-5.731
	v-2.831c0-0.209-0.45-0.104-0.56-0.209c-0.107-0.104-0.332,0.209-0.443,0.104c-0.107-0.104-0.111-0.104-0.328-0.104
	s-0.765,0-0.765-0.104c0-0.012-0.001-0.024-0.004-0.037c0-0.006-0.004-0.009-0.004-0.015c-0.003-0.009-0.009-0.182-0.009-0.188
	C60.862,16.29,60.81,16,60.714,16h-0.003c-0.021,0-0.046,0.149-0.073,0.139c-0.015-0.006-0.028,0.074-0.04,0.071
	c-0.015-0.003-0.025,0.039-0.037,0.039c-0.028-0.006-0.058,0.012-0.095,0.012c-0.328,0-0.543-0.198-0.76-0.302
	c-0.218-0.104-0.328-0.203-0.543-0.203c-0.221,0-0.546-0.414-0.654-0.522c-0.11-0.101-0.438-0.1-0.653-0.308
	c-0.218-0.208-0.328-0.419-0.546-0.419c-0.218,0-0.325,0.313-0.546,0.42c-0.215,0.101-0.543,0.209-0.868,0.101
	c-0.328-0.101-0.436-0.31-0.436-0.31s-0.218-0.104-0.435,0c-0.218,0.101-0.546,0.209-0.546,0.209s-0.214,0.417-0.435,0.31
	c-0.218-0.101-0.432-0.208-0.432-0.208s-0.981,0.107-1.092,0.208c-0.107,0.107-0.214,0.417-0.325,0.417
	c-0.107,0-0.436,0.107-0.436,0.107l-0.107,0.313c0,0-0.328-0.208-0.438-0.313c-0.107-0.107-0.107-0.212-0.436-0.316
	c-0.325-0.101-0.433-0.101-0.433-0.31c0-0.208-0.328-0.316-0.328-0.316s-0.218,0.316-0.325,0.316c-0.11,0-0.328,0.209-0.435,0
	c-0.107-0.208-0.218,0-0.328-0.107c-0.107-0.101-0.107-0.521-0.218-0.521s-0.435,0.107-0.435,0.212c0,0.101,0.079,0.417-0.138,0.417
	S48,15.028,48,15.236s0,0.629,0,0.629s-0.404,0.104-0.512-0.104c-0.111-0.212-0.04-0.626-0.04-0.733c0-0.101-0.348-0.31-0.566-0.208
	c-0.218,0.107-0.445,0.417-0.445,0.417s-0.222,0.107-0.333,0c-0.107-0.101-0.11-0.417-0.22-0.417c-0.107,0-0.434,0.208-0.544,0
	c-0.107-0.205-0.218-0.521-0.326-0.521c-0.11,0-0.436,0.316-0.436,0.316s-0.218,0.414-0.328,0.414c-0.107,0-0.435-0.101-0.543-0.101
	c-0.111,0-0.328-0.107-0.218-0.313c0.107-0.208,0.107-0.208-0.218-0.316c-0.328-0.104-0.546-0.31-0.436-0.521
	c0.107-0.212,0.107-0.417-0.11-0.313c-0.215,0.101-0.543,0.209-0.76,0.101c-0.218-0.101-0.436-0.31-0.546-0.101
	c-0.107,0.209-0.107,0.524-0.436,0.417c-0.325-0.104-0.432-0.316-0.543-0.417c-0.11-0.104-0.11-0.104-0.435,0
	c-0.328,0.101-1.089,0-1.196-0.104c-0.11-0.104-0.328-0.313-0.546-0.208c-0.218,0.104-0.546,0.208-0.76,0
	c-0.218-0.209-0.218-0.524-0.325-0.837c-0.11-0.313-0.653-0.521-0.653-0.521c-0.11,0.104-0.11,0.313-0.328,0.313
	c-0.218,0-0.436-0.104-0.436-0.104s-0.218,0.104-0.436,0.104c-0.218,0-0.438-0.083-0.653-0.292C34.456,11.605,34.02,11,33.913,11
	C33.803,11,33,11,33,11V0H18.522L18.24,26H0v-0.013c0,0,0.468,0.524,0.793,0.733c0.046,0.031,0.223,0.064,0.278,0.104
	c0.346,0.252,0.933,0.712,1.215,1.254c0.328,0.623,0.792,0.834,1.448,1.04c0.653,0.212,0.669,0.626,1.104,1.046
	c0.432,0.417,0.986,0.837,1.421,1.358c0.436,0.521,0.768,0.625,1.525,0.941c0.764,0.313,0.876,0.727,1.312,1.043
	c0.49,0.353,0.216,0.831,0.437,1.147c0.218,0.31,0.654,1.254,0.654,1.772c0,0.524,0.325,1.15,0.543,1.567s0.871,1.046,1.414,1.254
	c0.546,0.205,0.546,0.417,0.764,0.834c0.218,0.417,1.306,0.417,1.631,0.629c0.328,0.205,0.546,0.518,1.089,0.622
	c0.543,0.107,0.543,0.313,0.981,0.524c0.433,0.208,0.868,0.414,1.303,0.313c0.436-0.104,0.218-0.313,0.218-0.313
	s0.328-0.524,0.546-0.524c0.218,0,0.325-0.209,0.325-0.521s0.11-0.417,0.221-0.417c0.104,0,0.215-0.417,0.215-0.625
	c0-0.209,0.438-1.254,0.653-1.358c0.218-0.104,0.764-0.417,0.981-0.417s0.542-0.104,0.542-0.417c0-0.313,0.654,0,0.871,0.104
	c0.218,0.104,0.764,0.104,0.978,0.104c0.218,0,0.871,0,1.199,0.104c0.325,0.104,0.978-0.104,1.196-0.104s0.546,0.313,0.546,0.313
	s0.436,0.733,0.653,1.15s0.978,0.417,1.086,0.521c0.11,0.104,0.653,0.521,1.199,0.834c0.542,0.313,0.542,0.73,0.653,0.939
	c0.111,0.211,0.218,0.837,0.546,1.463c0.325,0.626,0.761,1.463,1.086,1.775s0.325,1.251,0.981,1.775
	c0.236,0.187,0.871,0.626,1.196,1.251c0.325,0.626,0.871,1.355,1.196,1.567c0.328,0.208,0.874,0.417,0.981,0.837
	c0.107,0.411-0.218,0.831-0.107,1.04c0.107,0.208,0.325,0.316,0.432,0.73c0.11,0.42-0.218,0.733,0.11,0.941
	c0.325,0.209,0.543,0.73,0.653,1.043s0.543,1.355,0.65,1.46c0.11,0.107,0.221,0.42,0.221,0.628c0,0.209,0.871,0.209,1.306,0.209
	c0.432,0,0.325,0.208,0.76,0.521c0.435,0.316,0.653,0.107,0.978,0.316c0.328,0.205,0.871,0.625,1.309,0.73
	c0.432,0.104,0.978,0.104,1.303,0.104s1.417,0.208,1.524,0.313c0.11,0.101,0.653,0.417,0.978,0.521
	c0.328,0.104,0.656-0.208,0.871-0.313c0.132-0.064,0.307-0.089,0.515-0.073c-0.028-0.037-0.055-0.077-0.077-0.135
	c-0.221-0.521-0.546-0.837-0.653-1.356c-0.111-0.524-0.221-0.733-0.439-1.046c-0.218-0.313-0.218-0.524-0.325-1.15
	c-0.11-0.626-0.432-0.834-0.432-1.147s0.107-0.626,0.322-0.834c0.218-0.212,0.218-0.521,0.11-1.043
	c-0.089-0.423,0-0.211,0.325-0.524c0.328-0.31,0.328-0.31,0.439-0.733c0.107-0.417,0.214-1.147,0-1.46
	c-0.221-0.313-0.439-0.417-0.328-0.625c0.107-0.209,0.76,0,1.089,0.208c0.325,0.208,0.325-0.313,0.543-0.938
	c0.218-0.626,0-0.524-0.218-0.524c-0.218,0-0.325-0.101-0.107-0.31c0.218-0.208,0.653,0.101,1.196-0.107
	c0.546-0.208,0.328-0.313,0.328-0.522c0-0.209,0.107-0.73,0.107-0.73s0.543,0.313,0.871,0.313c0.325,0,0.763-0.417,0.871-0.733
	c0.107-0.31-0.653-0.831-0.871-1.147c-0.218-0.313,0.543,0,1.417,0.107c0.868,0.101,0.76,0.101,1.631,0.101
	c0.868,0,0.653-0.313,1.631-0.626c0.981-0.313,1.199-0.521,1.959-1.042c0.764-0.522,0.546-0.837,0.981-1.046
	c0.432-0.209,0.868-1.251,1.196-1.46c0.325-0.209,0.436-0.104,0.871-0.104c0.436,0,0.543-0.209,1.089-0.417
	c0.543-0.212,1.089-0.313,1.414-0.625c0.184-0.178,0.751-0.325,1.328-0.454c-0.049-0.049-0.098-0.107-0.129-0.175
	c-0.11-0.208,0.107-0.939,0.325-1.046c0.218-0.101,0.435-0.626,0.546-0.831c0.107-0.208,0.218-0.941,0.107-1.046
	c-0.107-0.104-0.218-0.31-0.218-0.521c0-0.208,0.286-0.325,0.218-0.521c-0.107-0.313-0.237-0.73-0.022-1.046
	c0.221-0.31,0.42-1.251,0.42-1.46v-0.626C65,30.685,65.344,30.477,65.126,30.164z M45.805,29.033
	c-0.678,0.515-7.543,5.73-10.482,7.962C34.512,37.611,34,37.432,34,36.5c0-4.17,0-15.636,0-16.25c0-0.75,1.025-0.531,1.025-0.531
	l10.758,7.551C45.783,27.271,46.671,28.375,45.805,29.033z"/>
</svg>
