<?xml version="1.0" encoding="utf-8"?>
<!-- Generator: Adobe Illustrator 17.0.0, SVG Export Plug-In . SVG Version: 6.00 Build 0)  -->
<!DOCTYPE svg PUBLIC "-//W3C//DTD SVG 1.1//EN" "http://www.w3.org/Graphics/SVG/1.1/DTD/svg11.dtd">
<svg version="1.1" id="Layer_1" xmlns="http://www.w3.org/2000/svg" xmlns:xlink="http://www.w3.org/1999/xlink" x="0px" y="0px"
	 width="23.8px" height="23.6px" viewBox="0 0 23.8 23.6" enable-background="new 0 0 23.8 23.6" xml:space="preserve">
<g>
	<rect x="-237.6" y="37.5" fill="none" width="276.4" height="93"/>
	<text transform="matrix(1 0 0 1 -237.6318 46.6633)"><tspan x="0" y="0" fill="#FFFFFF" font-family="'OpenSans-Bold'" font-size="12">© 2013 Department of Information Resources</tspan><tspan x="0" y="20" fill="#FFFFFF" font-family="'OpenSans'" font-size="12">300 W. 15th Street, Suite 1300</tspan><tspan x="0" y="38" fill="#FFFFFF" font-family="'OpenSans'" font-size="12">Austin, TX 78701  |  512.475.4700</tspan><tspan x="0" y="68" fill="#FFFFFF" font-family="'OpenSans-Semibold'" font-size="14">   </tspan><tspan x="10.9" y="68" fill="#FFFFFF" font-family="'OpenSans-Semibold'" font-size="14">V</tspan><tspan x="20.5" y="68" fill="#FFFFFF" font-family="'OpenSans-Semibold'" font-size="14">ie</tspan><tspan x="33" y="68" fill="#FFFFFF" font-family="'OpenSans-Semibold'" font-size="14">w on M</tspan><tspan x="82.1" y="68" fill="#FFFFFF" font-family="'OpenSans-Semibold'" font-size="14">a</tspan><tspan x="90.5" y="68" fill="#FFFFFF" font-family="'OpenSans-Semibold'" font-size="14">p</tspan></text>
	<g>
		<polygon fill="#FFFFFF" points="-234.3,105.4 -234.3,107.5 -231.7,110.1 -234.3,112.6 -234.3,114.8 -229.6,110.1 		"/>
		<polygon fill="#FFFFFF" points="-237.6,105.4 -237.6,107.5 -235.1,110.1 -237.6,112.6 -237.6,114.8 -233,110.1 		"/>
	</g>
</g>
<text transform="matrix(1 0 0 1 -225.75 -6.4529)" fill="#FFFFFF" font-family="'OpenSansLight-Italic'" font-size="15">Stay up to date with DIR</text>
<path fill-rule="evenodd" clip-rule="evenodd" fill="#1FA3CF" stroke="#FFFFFF" stroke-miterlimit="10" d="M12.1,0.8
	c6.1,0,11.1,5,11.1,11.1c0,6.1-5,11.1-11.1,11.1c-6.1,0-11.1-5-11.1-11.1C0.9,5.8,5.9,0.8,12.1,0.8z"/>
<path fill="#FFFFFF" d="M19.4,8.1c-0.5,0.2-1,0.4-1.6,0.4c0.6-0.3,1-0.9,1.2-1.6c-0.5,0.3-1.1,0.6-1.8,0.7c-0.5-0.5-1.2-0.9-2-0.9
	c-1.5,0-2.8,1.3-2.8,2.8c0,0.2,0,0.4,0.1,0.6C10.2,10.1,8.1,9,6.7,7.3C6.5,7.7,6.4,8.1,6.4,8.7c0,1,0.5,1.8,1.2,2.3
	c-0.5,0-0.9-0.1-1.3-0.4c0,0,0,0,0,0c0,1.4,1,2.5,2.2,2.8c-0.2,0.1-0.5,0.1-0.7,0.1c-0.2,0-0.4,0-0.5-0.1c0.4,1.1,1.4,1.9,2.6,1.9
	c-1,0.8-2.2,1.2-3.5,1.2c-0.2,0-0.4,0-0.7,0c1.2,0.8,2.7,1.3,4.3,1.3c5.1,0,7.9-4.3,7.9-8c0-0.1,0-0.2,0-0.4
	C18.5,9.1,19,8.6,19.4,8.1z"/>
<text transform="matrix(1 0 0 1 -144.75 -76)" fill="#FFFFFF" font-family="'Montserrat-Bold'" font-size="15">Back to Top</text>
<g>
	<polygon fill="#FFFFFF" points="-105.4,-101.3 -103.3,-101.3 -100.7,-103.9 -98.2,-101.3 -96.1,-101.3 -100.7,-106 	"/>
	<polygon fill="#FFFFFF" points="-105.4,-98 -103.3,-98 -100.7,-100.6 -98.2,-98 -96.1,-98 -100.7,-102.7 	"/>
</g>
</svg>
